<?xml version="1.0" encoding="UTF-8" standalone="no"?><!DOCTYPE svg PUBLIC "-//W3C//DTD SVG 1.1//EN" "http://www.w3.org/Graphics/SVG/1.1/DTD/svg11.dtd"><svg width="100%" height="100%" viewBox="0 0 9 9" version="1.1" xmlns="http://www.w3.org/2000/svg" xmlns:xlink="http://www.w3.org/1999/xlink" xml:space="preserve" xmlns:serif="http://www.serif.com/" style="fill-rule:evenodd;clip-rule:evenodd;stroke-linejoin:round;stroke-miterlimit:1.41421;"><path d="M0,4.134c0,-2.283 1.85,-4.134 4.135,-4.134c2.283,0 4.133,1.851 4.133,4.134c0,2.283 -1.85,4.134 -4.133,4.134c-2.285,0 -4.135,-1.851 -4.135,-4.134Z" style="fill:#030404;fill-rule:nonzero;"/><path d="M3.974,1.514l0,2.504l0.24,0l0,-2.504" style="fill:#fff;fill-rule:nonzero;"/><path d="M3.043,2.772l1.051,-1.135l1.054,1.135l0.175,-0.163l-1.229,-1.326l-1.226,1.326l0.175,0.163Z" style="fill:#fff;fill-rule:nonzero;"/><path d="M1.3,5.923l0.695,0c0.244,0 0.373,-0.153 0.373,-0.345c0,-0.162 -0.11,-0.294 -0.246,-0.315c0.121,-0.025 0.221,-0.133 0.221,-0.294c0,-0.171 -0.125,-0.326 -0.369,-0.326l-0.674,0l0,1.28Zm0.273,-0.768l0,-0.278l0.342,0c0.092,0 0.149,0.059 0.149,0.14c0,0.081 -0.057,0.138 -0.149,0.138l-0.342,0Zm0,0.532l0,-0.298l0.351,0c0.108,0 0.165,0.07 0.165,0.15c0,0.092 -0.061,0.148 -0.165,0.148l-0.351,0Z" style="fill:#fff;fill-rule:nonzero;"/><path d="M3.648,5.923l0.312,0l-0.494,-1.28l-0.342,0l-0.495,1.28l0.311,0l0.081,-0.217l0.549,0l0.078,0.217Zm-0.353,-1.008l0.2,0.551l-0.399,0l0.199,-0.551Z" style="fill:#fff;fill-rule:nonzero;"/><path d="M4.825,5.946c0.283,0 0.444,-0.155 0.536,-0.315l-0.234,-0.113c-0.054,0.106 -0.169,0.186 -0.302,0.186c-0.232,0 -0.401,-0.178 -0.401,-0.42c0,-0.242 0.169,-0.421 0.401,-0.421c0.133,0 0.248,0.083 0.302,0.187l0.234,-0.116c-0.09,-0.159 -0.253,-0.313 -0.536,-0.313c-0.384,0 -0.681,0.269 -0.681,0.663c0,0.393 0.297,0.662 0.681,0.662Z" style="fill:#fff;fill-rule:nonzero;"/><path d="M6.476,5.923l0.336,0l-0.543,-0.68l0.509,-0.6l-0.336,0l-0.453,0.572l0,-0.572l-0.273,0l0,1.28l0.273,0l0,-0.393l0.1,-0.119l0.387,0.512Z" style="fill:#fff;fill-rule:nonzero;"/></svg>