<?xml version="1.0" encoding="UTF-8" standalone="no"?>
<!DOCTYPE svg PUBLIC "-//W3C//DTD SVG 1.1//EN" "http://www.w3.org/Graphics/SVG/1.1/DTD/svg11.dtd">
<svg width="100%" height="100%" viewBox="0 0 23 20" version="1.1" xmlns="http://www.w3.org/2000/svg" xmlns:xlink="http://www.w3.org/1999/xlink" xml:space="preserve" xmlns:serif="http://www.serif.com/" style="fill-rule:evenodd;clip-rule:evenodd;stroke-linejoin:round;stroke-miterlimit:1.41421;">
    <g transform="matrix(1,0,0,1,-689.297,-397.318)">
        <g transform="matrix(1,0,0,1,-2380,-1105.59)">
            <path d="M3080.44,1503.87L3080.44,1514.3L3081.44,1514.3L3081.44,1503.87" style="fill:rgb(175,175,175);fill-rule:nonzero;"/>
        </g>
        <g transform="matrix(1,0,0,1,-2380,-1105.59)">
            <path d="M3076.56,1509.11L3080.94,1504.38L3085.33,1509.11L3086.06,1508.43L3080.94,1502.91L3075.83,1508.43L3076.56,1509.11Z" style="fill:rgb(175,175,175);fill-rule:nonzero;"/>
        </g>
        <g transform="matrix(1,0,0,1,-2380,-1105.59)">
            <path d="M3069.3,1522.24L3072.19,1522.24C3073.21,1522.24 3073.75,1521.6 3073.75,1520.8C3073.75,1520.13 3073.29,1519.58 3072.72,1519.49C3073.23,1519.38 3073.64,1518.94 3073.64,1518.26C3073.64,1517.55 3073.12,1516.9 3072.11,1516.9L3069.3,1516.9L3069.3,1522.24ZM3070.43,1519.04L3070.43,1517.88L3071.86,1517.88C3072.24,1517.88 3072.48,1518.13 3072.48,1518.46C3072.48,1518.8 3072.24,1519.04 3071.86,1519.04L3070.43,1519.04ZM3070.43,1521.26L3070.43,1520.02L3071.9,1520.02C3072.35,1520.02 3072.59,1520.3 3072.59,1520.64C3072.59,1521.02 3072.33,1521.26 3071.9,1521.26L3070.43,1521.26Z" style="fill:rgb(175,175,175);fill-rule:nonzero;"/>
        </g>
        <g transform="matrix(1,0,0,1,-2380,-1105.59)">
            <path d="M3079.08,1522.24L3080.38,1522.24L3078.32,1516.9L3076.9,1516.9L3074.83,1522.24L3076.13,1522.24L3076.47,1521.34L3078.75,1521.34L3079.08,1522.24ZM3077.61,1518.04L3078.44,1520.34L3076.78,1520.34L3077.61,1518.04Z" style="fill:rgb(175,175,175);fill-rule:nonzero;"/>
        </g>
        <g transform="matrix(1,0,0,1,-2380,-1105.59)">
            <path d="M3083.99,1522.34C3085.16,1522.34 3085.83,1521.69 3086.22,1521.02L3085.24,1520.55C3085.02,1520.99 3084.54,1521.33 3083.99,1521.33C3083.02,1521.33 3082.31,1520.58 3082.31,1519.58C3082.31,1518.57 3083.02,1517.82 3083.99,1517.82C3084.54,1517.82 3085.02,1518.17 3085.24,1518.6L3086.22,1518.12C3085.84,1517.46 3085.16,1516.82 3083.99,1516.82C3082.39,1516.82 3081.15,1517.94 3081.15,1519.58C3081.15,1521.22 3082.39,1522.34 3083.99,1522.34Z" style="fill:rgb(175,175,175);fill-rule:nonzero;"/>
        </g>
        <g transform="matrix(1,0,0,1,-2380,-1105.59)">
            <path d="M3090.87,1522.24L3092.27,1522.24L3090,1519.41L3092.12,1516.9L3090.72,1516.9L3088.83,1519.29L3088.83,1516.9L3087.7,1516.9L3087.7,1522.24L3088.83,1522.24L3088.83,1520.6L3089.25,1520.1L3090.87,1522.24Z" style="fill:rgb(175,175,175);fill-rule:nonzero;"/>
        </g>
    </g>
</svg>
