<?xml version="1.0" encoding="UTF-8" standalone="no"?>
<!DOCTYPE svg PUBLIC "-//W3C//DTD SVG 1.1//EN" "http://www.w3.org/Graphics/SVG/1.1/DTD/svg11.dtd">
<svg width="100%" height="100%" viewBox="0 0 51 41" version="1.1" xmlns="http://www.w3.org/2000/svg" xmlns:xlink="http://www.w3.org/1999/xlink" xml:space="preserve" xmlns:serif="http://www.serif.com/" style="fill-rule:evenodd;clip-rule:evenodd;stroke-linejoin:round;stroke-miterlimit:1.41421;">
    <g transform="matrix(0.24,0,0,0.24,-22.3841,-35.7902)">
        <g transform="matrix(1,0,0,1,206.742,178.662)">
            <path d="M0,10.005C0,14.832 -3.913,18.745 -8.74,18.745C-13.567,18.745 -17.48,14.832 -17.48,10.005C-17.48,5.178 -8.74,-8.74 -8.74,-8.74C-8.74,-8.74 0,5.178 0,10.005" style="fill:rgb(77,171,178);fill-rule:nonzero;"/>
        </g>
        <g transform="matrix(1,0,0,1,176.199,272.15)">
            <path d="M0,-9.884L-38.24,-9.884L-30.992,0L-4.679,0" style="fill-rule:nonzero;"/>
        </g>
        <g transform="matrix(1,0,0,1,183.997,258.477)">
            <path d="M0,-9.884L-56.004,-9.884L-48.756,0L-5.589,0" style="fill-rule:nonzero;"/>
        </g>
        <g transform="matrix(1,0,0,1,193.042,244.805)">
            <path d="M0,-9.884L-74.933,-9.884L-67.685,0L-5.751,0C-3.503,-4.041 -1.421,-7.546 0,-9.884" style="fill-rule:nonzero;"/>
        </g>
        <g transform="matrix(-0.144497,0.989505,0.989505,0.144497,250.199,203.504)">
            <path d="M37.99,-42.729C40.098,-40.986 43.265,-38.418 46.939,-35.611L37.99,25.674L27.162,31.417L37.99,-42.729Z" style="fill-rule:nonzero;"/>
        </g>
        <g transform="matrix(1,0,0,1,215.173,248.593)">
            <path d="M0,9.884L45.057,9.884L52.304,0L-4.927,0C-3.218,3.199 -1.507,6.582 0,9.884" style="fill-rule:nonzero;"/>
        </g>
        <g transform="matrix(1,0,0,1,222.338,262.266)">
            <path d="M0,9.884L27.925,9.884L35.174,0L-4.029,0" style="fill-rule:nonzero;"/>
        </g>
        <g transform="matrix(1,0,0,1,213.985,253.026)">
            <path d="M0,43.436L-33.124,43.436L-37.359,38.646C-44.314,30.779 -45.349,19.449 -39.934,10.453L-33.643,0L-31.457,1.315L-37.748,11.767C-42.586,19.805 -41.662,29.928 -35.449,36.957L-31.976,40.885L-1.15,40.885L2.323,36.957C8.537,29.928 9.461,19.805 4.623,11.767L-1.668,1.315L0.518,0L6.809,10.453C12.224,19.449 11.188,30.779 4.233,38.646L0,43.436Z" style="fill-rule:nonzero;"/>
        </g>
        <g transform="matrix(1,0,0,1,184.337,209.727)">
            <path d="M0,18.622L26.869,18.622L37.081,0L-10.211,0L0,18.622ZM28.379,21.173L-1.51,21.173L-14.518,-2.551L41.388,-2.551L28.379,21.173Z" style="fill-rule:nonzero;"/>
        </g>
        <g transform="matrix(1,0,0,1,177.581,275.617)">
            <path d="M0,15.21L3.854,19.569L35.829,19.569L39.683,15.21C44.498,9.763 46.304,2.482 44.898,-4.359L-5.215,-4.359C-6.62,2.482 -4.815,9.763 0,15.21" style="fill-rule:nonzero;"/>
        </g>
        <g transform="matrix(1,0,0,1,213.154,240.879)">
            <path d="M0,2.629L4.718,12.326C5.689,14.322 4.235,16.646 2.017,16.646L-32.781,16.646C-35,16.646 -36.453,14.322 -35.483,12.327L-30.767,2.628C-30.363,1.799 -30.363,0.83 -30.767,0L-35.483,-9.698C-36.453,-11.694 -35,-14.017 -32.781,-14.017L2.017,-14.017C4.235,-14.017 5.689,-11.693 4.718,-9.698L0,0C-0.403,0.829 -0.403,1.799 0,2.629" style="fill:rgb(77,171,178);fill-rule:nonzero;"/>
        </g>
        <g transform="matrix(1,0,0,1,197.735,246.617)">
            <path d="M0,-8.849L3.387,-12.601L3.129,-7.553L8.176,-7.811L4.425,-4.424L8.176,-1.037L3.129,-1.295L3.387,3.752L0,0.001L-3.387,3.752L-3.129,-1.295L-8.177,-1.037L-4.425,-4.424L-8.177,-7.811L-3.129,-7.553L-3.387,-12.601L0,-8.849Z" style="fill:rgb(245,242,235);fill-rule:nonzero;"/>
        </g>
        <g transform="matrix(1,0,0,1,198.002,303.711)">
            <path d="M0,-143.438C-5.7,-143.438 -11.398,-142.028 -16.595,-139.207L-75.407,-107.277C-84.218,-102.493 -90.536,-94.14 -92.741,-84.36C-94.946,-74.581 -92.824,-64.325 -86.919,-56.223L-54.995,-12.425C-48.471,-3.475 -37.964,1.868 -26.889,1.868L26.877,1.868C37.951,1.868 48.458,-3.474 54.981,-12.423L86.914,-56.223C92.82,-64.325 94.943,-74.581 92.738,-84.361C90.533,-94.141 84.216,-102.495 75.404,-107.279L16.595,-139.208C11.4,-142.027 5.699,-143.438 0,-143.438M26.877,13.01L-26.889,13.01C-41.512,13.01 -55.385,5.955 -63.999,-5.863L-95.923,-49.661C-103.72,-60.357 -106.521,-73.898 -103.61,-86.811C-100.699,-99.724 -92.356,-110.752 -80.724,-117.068L-21.911,-148.999C-8.189,-156.448 8.193,-156.447 21.911,-148.999L80.721,-117.07C92.354,-110.753 100.696,-99.725 103.607,-86.811C106.519,-73.897 103.716,-60.356 95.918,-49.659L63.985,-5.859C55.371,5.957 41.499,13.01 26.877,13.01" style="fill:rgb(77,171,178);fill-rule:nonzero;"/>
        </g>
        <g transform="matrix(1,0,0,1,155.354,219.98)">
            <path d="M0,-16.832L-8.246,1.882L-11.811,1.882L-3.564,-15.898L-14.244,-15.898L-14.244,-18.714L0,-18.714L0,-16.832Z" style="fill:rgb(77,171,178);fill-rule:nonzero;"/>
        </g>
        <g transform="matrix(1,0,0,1,250.017,216.317)">
            <path d="M0,-9.506C0,-9.958 -0.07,-10.376 -0.212,-10.758C-0.354,-11.14 -0.551,-11.467 -0.806,-11.74C-1.061,-12.014 -1.369,-12.227 -1.732,-12.377C-2.096,-12.528 -2.494,-12.604 -2.928,-12.604C-3.371,-12.604 -3.77,-12.533 -4.123,-12.392C-4.477,-12.25 -4.776,-12.045 -5.021,-11.777C-5.267,-11.507 -5.455,-11.182 -5.587,-10.8C-5.719,-10.418 -5.785,-9.986 -5.785,-9.506C-5.785,-9.034 -5.717,-8.608 -5.58,-8.226C-5.443,-7.844 -5.25,-7.519 -5,-7.25C-4.75,-6.981 -4.446,-6.771 -4.088,-6.62C-3.729,-6.469 -3.328,-6.394 -2.885,-6.394C-2.451,-6.394 -2.056,-6.469 -1.697,-6.62C-1.339,-6.771 -1.034,-6.981 -0.784,-7.25C-0.535,-7.519 -0.342,-7.844 -0.205,-8.226C-0.068,-8.608 0,-9.034 0,-9.506M0.439,-0.227C0.439,-0.745 0.358,-1.217 0.198,-1.641C0.038,-2.066 -0.188,-2.428 -0.48,-2.731C-0.772,-3.032 -1.124,-3.266 -1.534,-3.431C-1.944,-3.595 -2.404,-3.678 -2.913,-3.678C-3.423,-3.678 -3.883,-3.595 -4.293,-3.431C-4.703,-3.266 -5.052,-3.032 -5.34,-2.731C-5.627,-2.428 -5.849,-2.066 -6.004,-1.641C-6.16,-1.217 -6.237,-0.745 -6.237,-0.227C-6.237,0.83 -5.94,1.652 -5.347,2.242C-4.752,2.831 -3.932,3.126 -2.885,3.126C-2.395,3.126 -1.944,3.051 -1.534,2.899C-1.124,2.749 -0.772,2.527 -0.48,2.235C-0.188,1.942 0.038,1.591 0.198,1.181C0.358,0.77 0.439,0.302 0.439,-0.227M3.381,-9.619C3.381,-8.61 3.122,-7.712 2.604,-6.924C2.084,-6.137 1.377,-5.517 0.481,-5.065C0.99,-4.828 1.45,-4.541 1.86,-4.201C2.271,-3.861 2.622,-3.48 2.914,-3.056C3.207,-2.631 3.431,-2.166 3.586,-1.662C3.742,-1.157 3.819,-0.622 3.819,-0.057C3.819,0.895 3.646,1.74 3.296,2.475C2.947,3.211 2.471,3.826 1.867,4.321C1.264,4.816 0.555,5.191 -0.261,5.446C-1.077,5.7 -1.951,5.828 -2.885,5.828C-3.838,5.828 -4.727,5.7 -5.552,5.446C-6.377,5.191 -7.091,4.816 -7.694,4.321C-8.298,3.826 -8.772,3.211 -9.116,2.475C-9.461,1.74 -9.633,0.895 -9.633,-0.057C-9.633,-0.622 -9.555,-1.16 -9.399,-1.669C-9.243,-2.179 -9.022,-2.646 -8.734,-3.069C-8.446,-3.494 -8.098,-3.876 -7.687,-4.216C-7.277,-4.555 -6.817,-4.838 -6.309,-5.065C-7.195,-5.517 -7.893,-6.137 -8.401,-6.924C-8.911,-7.712 -9.166,-8.61 -9.166,-9.619C-9.166,-10.533 -9.01,-11.347 -8.699,-12.059C-8.388,-12.771 -7.956,-13.369 -7.404,-13.856C-6.853,-14.341 -6.195,-14.709 -5.432,-14.959C-4.668,-15.208 -3.833,-15.334 -2.928,-15.334C-2.022,-15.334 -1.186,-15.208 -0.417,-14.959C0.352,-14.709 1.019,-14.341 1.585,-13.856C2.15,-13.369 2.591,-12.771 2.907,-12.059C3.224,-11.347 3.381,-10.533 3.381,-9.619" style="fill:rgb(77,171,178);fill-rule:nonzero;"/>
        </g>
    </g>
</svg>
