<?xml version="1.0" encoding="UTF-8" standalone="no"?>
<!DOCTYPE svg PUBLIC "-//W3C//DTD SVG 1.1//EN" "http://www.w3.org/Graphics/SVG/1.1/DTD/svg11.dtd">
<svg width="100%" height="100%" viewBox="0 0 5 5" version="1.1" xmlns="http://www.w3.org/2000/svg" xmlns:xlink="http://www.w3.org/1999/xlink" xml:space="preserve" xmlns:serif="http://www.serif.com/" style="fill-rule:evenodd;clip-rule:evenodd;stroke-linejoin:round;stroke-miterlimit:1.41421;">
    <g transform="matrix(0.24,0,0,0.24,-126.746,-75.391)">
        <g transform="matrix(1,0,0,1,546.699,320.511)">
            <path d="M0,7.804C0,10.233 -1.976,12.208 -4.403,12.208L-12.207,12.208C-14.636,12.208 -16.611,10.233 -16.611,7.804L-16.611,0C-16.611,-2.427 -14.636,-4.403 -12.207,-4.403L-4.403,-4.403C-1.976,-4.403 0,-2.427 0,0L0,7.804ZM-4.403,-6.382L-12.207,-6.382C-15.727,-6.382 -18.589,-3.518 -18.589,0L-18.589,7.804C-18.589,11.324 -15.727,14.186 -12.207,14.186L-4.403,14.186C-0.885,14.186 1.979,11.324 1.979,7.804L1.979,0C1.979,-3.518 -0.885,-6.382 -4.403,-6.382" style="fill-rule:nonzero;"/>
        </g>
        <g transform="matrix(1,0,0,1,538.394,320.853)">
            <path d="M0,7.12C-1.963,7.12 -3.561,5.523 -3.561,3.56C-3.561,1.597 -1.963,0 0,0C1.964,0 3.561,1.597 3.561,3.56C3.561,5.523 1.964,7.12 0,7.12M0,-1.979C-3.054,-1.979 -5.538,0.506 -5.538,3.56C-5.538,6.614 -3.054,9.099 0,9.099C3.055,9.099 5.539,6.614 5.539,3.56C5.539,0.506 3.055,-1.979 0,-1.979" style="fill-rule:nonzero;"/>
        </g>
        <g transform="matrix(1,0,0,1,543.472,320.112)">
            <ellipse cx="0" cy="-1.219" rx="1.22" ry="1.219"/>
        </g>
    </g>
</svg>
