<?xml version="1.0" encoding="UTF-8" standalone="no"?>
<!DOCTYPE svg PUBLIC "-//W3C//DTD SVG 1.1//EN" "http://www.w3.org/Graphics/SVG/1.1/DTD/svg11.dtd">
<svg width="100%" height="100%" viewBox="0 0 53 53" version="1.1" xmlns="http://www.w3.org/2000/svg" xmlns:xlink="http://www.w3.org/1999/xlink" xml:space="preserve" xmlns:serif="http://www.serif.com/" style="fill-rule:evenodd;clip-rule:evenodd;stroke-linejoin:round;stroke-miterlimit:1.41421;">
    <g transform="matrix(1,0,0,1,-570.999,-339.968)">
        <path d="M596.901,374.647C592.141,374.647 588.282,370.788 588.282,366.028C588.282,361.268 592.141,357.409 596.901,357.409C601.661,357.409 605.52,361.268 605.52,366.028C605.52,370.788 601.661,374.647 596.901,374.647Z" style="fill:rgb(3,4,4);fill-rule:nonzero;"/>
        <path d="M597.401,370.686L597.401,360.252L596.401,360.252L596.401,370.686" style="fill:white;fill-rule:nonzero;"/>
        <path d="M601.282,365.443L596.901,370.174L592.52,365.443L591.786,366.123L596.901,371.646L602.016,366.123L601.282,365.443Z" style="fill:white;fill-rule:nonzero;"/>
        <g transform="matrix(1,0,0,1,198.366,-97.6473)">
            <path d="M380.889,455.906L381.632,454.399L377.101,452.164L377.905,450.534L376.591,449.886L374.236,454.662L375.55,455.31L376.358,453.672L380.889,455.906Z" style="fill:rgb(3,4,4);fill-rule:nonzero;"/>
        </g>
        <g transform="matrix(1,0,0,1,198.366,-97.6473)">
            <path d="M385.936,448.988L387.267,447.625L380.884,444.833L379.41,446.344L382.359,452.651L383.691,451.288L383.245,450.402L385.04,448.563L385.936,448.988ZM381.335,446.749L383.67,447.868L382.51,449.057L381.335,446.749Z" style="fill:rgb(3,4,4);fill-rule:nonzero;"/>
        </g>
        <g transform="matrix(1,0,0,1,198.366,-97.6473)">
            <path d="M391.59,445.578L393.455,444.7L389.564,442.697L390.556,438.861L388.682,439.743L388.01,443.019L386.87,440.596L385.349,441.312L388.124,447.209L389.645,446.493L388.833,444.769L388.998,444.087L391.59,445.578Z" style="fill:rgb(3,4,4);fill-rule:nonzero;"/>
        </g>
        <g transform="matrix(1,0,0,1,198.366,-97.6473)">
            <path d="M394.427,444.6L399.179,444.095L399.024,442.638L395.944,442.965L395.827,441.867L398.839,441.547L398.684,440.09L395.672,440.41L395.565,439.4L398.645,439.072L398.49,437.615L393.739,438.12L394.427,444.6Z" style="fill:rgb(3,4,4);fill-rule:nonzero;"/>
        </g>
        <g transform="matrix(1,0,0,1,198.366,-97.6473)">
            <path d="M405.212,445.306L406.775,445.925L408.635,441.229L410.325,441.898L410.864,440.536L405.914,438.574L405.374,439.937L407.072,440.61L405.212,445.306Z" style="fill:rgb(3,4,4);fill-rule:nonzero;"/>
        </g>
        <g transform="matrix(1,0,0,1,198.366,-97.6473)">
            <path d="M412.834,450.129L414.086,451.25L418.433,446.394L417.181,445.273L415.558,447.086L413.542,445.281L415.165,443.468L413.912,442.347L409.565,447.202L410.817,448.323L412.564,446.373L414.581,448.178L412.834,450.129Z" style="fill:rgb(3,4,4);fill-rule:nonzero;"/>
        </g>
        <g transform="matrix(1,0,0,1,198.366,-97.6473)">
            <path d="M414.988,452.607L417.23,456.826L418.524,456.138L417.071,453.403L418.046,452.885L419.467,455.56L420.761,454.872L419.34,452.197L420.237,451.72L421.691,454.455L422.985,453.767L420.742,449.548L414.988,452.607Z" style="fill:rgb(3,4,4);fill-rule:nonzero;"/>
        </g>
        <g transform="matrix(1,0,0,1,198.366,-97.6473)">
            <path d="M372.634,464.654C372.661,466.227 373.585,467.061 374.432,467.467L375.091,466.009C374.569,465.803 374.13,465.254 374.119,464.628C374.101,463.563 374.908,462.797 375.973,462.778C377.038,462.76 377.872,463.498 377.89,464.563C377.901,465.188 377.481,465.752 376.967,465.976L377.676,467.41C378.528,466.965 379.402,466.11 379.375,464.537C379.34,462.534 377.956,461.034 375.943,461.069C373.94,461.104 372.599,462.651 372.634,464.654Z" style="fill:rgb(3,4,4);fill-rule:nonzero;"/>
        </g>
        <g transform="matrix(1,0,0,1,198.366,-97.6473)">
            <path d="M376.4,469.349C374.57,470.113 373.865,472.027 374.633,473.867C375.401,475.706 377.254,476.542 379.084,475.778C380.915,475.013 381.623,473.108 380.855,471.269C380.087,469.43 378.23,468.585 376.4,469.349ZM378.425,474.2C377.452,474.607 376.418,474.286 376.004,473.295C375.586,472.294 376.085,471.334 377.059,470.927C378.042,470.517 379.066,470.84 379.484,471.841C379.898,472.833 379.408,473.79 378.425,474.2Z" style="fill:rgb(3,4,4);fill-rule:nonzero;"/>
        </g>
        <g transform="matrix(1,0,0,1,198.366,-97.6473)">
            <path d="M378.158,479.855L379.302,481.087L381.185,479.339L383.246,481.559L384.32,480.562L382.259,478.342L383.004,477.651L385.111,479.921L386.185,478.924L382.935,475.422L378.158,479.855Z" style="fill:rgb(3,4,4);fill-rule:nonzero;"/>
        </g>
        <g transform="matrix(1,0,0,1,198.366,-97.6473)">
            <path d="M384.097,485.424L385.562,486.247L386.82,484.005L389.461,485.487L390.179,484.209L387.537,482.727L388.034,481.841L390.735,483.356L391.453,482.078L387.286,479.74L384.097,485.424Z" style="fill:rgb(3,4,4);fill-rule:nonzero;"/>
        </g>
        <g transform="matrix(1,0,0,1,198.366,-97.6473)">
            <path d="M391.477,488.908L396.164,489.833L396.448,488.395L393.409,487.795L393.623,486.712L396.595,487.298L396.878,485.861L393.907,485.274L394.103,484.277L397.142,484.877L397.426,483.439L392.738,482.514L391.477,488.908Z" style="fill:rgb(3,4,4);fill-rule:nonzero;"/>
        </g>
        <g transform="matrix(1,0,0,1,198.366,-97.6473)">
            <path d="M399.636,489.932L404.38,489.367L404.207,487.911L401.131,488.278L401,487.182L404.008,486.823L403.835,485.368L400.827,485.726L400.707,484.717L403.782,484.351L403.609,482.895L398.865,483.461L399.636,489.932Z" style="fill:rgb(3,4,4);fill-rule:nonzero;"/>
        </g>
        <g transform="matrix(1,0,0,1,198.366,-97.6473)">
            <path d="M415.234,479.967C414.045,478.38 412.024,478.16 410.429,479.355C408.834,480.55 408.469,482.556 409.658,484.144C410.847,485.731 412.876,485.946 414.471,484.751C414.878,484.446 415.208,484.089 415.447,483.69L416.181,483.872L416.557,482.419L415.93,482.266C415.993,481.486 415.773,480.687 415.234,479.967ZM413.581,483.562C412.713,484.212 411.659,483.963 411.027,483.119C410.388,482.266 410.451,481.194 411.319,480.543C412.18,479.899 413.227,480.14 413.865,480.992C414.07,481.266 414.203,481.557 414.258,481.858L413.32,481.633L412.952,483.081L413.862,483.302C413.778,483.402 413.682,483.486 413.581,483.562Z" style="fill:rgb(3,4,4);fill-rule:nonzero;"/>
        </g>
        <g transform="matrix(1,0,0,1,198.366,-97.6473)">
            <path d="M417.327,478.436C418.702,479.259 420.198,479.004 421.276,477.201C422.345,475.415 421.871,473.981 420.479,473.148L417.159,471.162L416.286,472.621L419.564,474.582C420.226,474.979 420.464,475.667 420.002,476.438C419.53,477.227 418.817,477.335 418.154,476.938L414.876,474.977L413.998,476.444L417.327,478.436Z" style="fill:rgb(3,4,4);fill-rule:nonzero;"/>
        </g>
        <g transform="matrix(1,0,0,1,198.366,-97.6473)">
            <path d="M423.822,471.115L424.24,469.487L417.929,467.863L417.51,469.491L423.822,471.115Z" style="fill:rgb(3,4,4);fill-rule:nonzero;"/>
        </g>
        <g transform="matrix(1,0,0,1,198.366,-97.6473)">
            <path d="M424.891,466.276L424.809,461.216L423.344,461.239L423.39,464.092L419.632,461.368L418.294,461.39L418.375,466.382L419.84,466.358L419.795,463.584L423.553,466.298L424.891,466.276Z" style="fill:rgb(3,4,4);fill-rule:nonzero;"/>
        </g>
    </g>
</svg>
