<?xml version="1.0" encoding="UTF-8" standalone="no"?>
<!DOCTYPE svg PUBLIC "-//W3C//DTD SVG 1.1//EN" "http://www.w3.org/Graphics/SVG/1.1/DTD/svg11.dtd">
<svg width="100%" height="100%" viewBox="0 0 38 43" version="1.1" xmlns="http://www.w3.org/2000/svg" xmlns:xlink="http://www.w3.org/1999/xlink" xml:space="preserve" xmlns:serif="http://www.serif.com/" style="fill-rule:evenodd;clip-rule:evenodd;stroke-linejoin:round;stroke-miterlimit:1.41421;">
    <g transform="matrix(0.24,0,0,0.24,-28.8981,-34.751)">
        <g transform="matrix(1,0,0,1,256.456,148.831)">
            <path d="M0,168.207L-116.912,168.207C-120.067,168.207 -122.689,165.776 -122.926,162.63L-131.897,43.728C-133.678,20.129 -115.01,0 -91.345,0L-25.567,0C-1.902,0 16.766,20.129 14.985,43.728L6.014,162.63C5.777,165.776 3.155,168.207 0,168.207" style="fill:rgb(77,171,178);fill-rule:nonzero;"/>
        </g>
        <g transform="matrix(1,0,0,1,165.111,313.003)">
            <path d="M0,-160.137C-10.31,-160.137 -19.849,-155.973 -26.859,-148.413C-33.87,-140.854 -37.304,-131.029 -36.528,-120.748L-27.557,-1.846C-27.479,-0.811 -26.605,0 -25.567,0L91.345,0C92.382,0 93.257,-0.811 93.334,-1.846L102.306,-120.748C103.082,-131.029 99.647,-140.854 92.637,-148.413C85.626,-155.973 76.087,-160.137 65.777,-160.137L0,-160.137ZM91.345,8.07L-25.567,8.07C-30.803,8.07 -35.212,3.981 -35.606,-1.239L-44.577,-120.141C-45.51,-132.505 -41.209,-144.811 -32.777,-153.903C-24.346,-162.993 -12.399,-168.207 0,-168.207L65.777,-168.207C78.176,-168.207 90.124,-162.993 98.555,-153.903C106.986,-144.811 111.287,-132.505 110.354,-120.141L101.383,-1.239C100.989,3.981 96.58,8.07 91.345,8.07" style="fill-rule:nonzero;"/>
        </g>
        <g transform="matrix(1,0,0,1,188.714,209.032)">
            <path d="M0,-29.77L-4.688,-29.77C-14.426,-29.77 -22.32,-21.875 -22.32,-12.137L-22.32,-8.372L-3.762,-12.188L0,0L20.219,0L23.981,-12.188L42.539,-8.372L42.539,-12.137C42.539,-21.875 34.645,-29.77 24.907,-29.77L20.219,-29.77L21.795,-19.4C21.795,-19.4 18.188,-16.341 10.109,-16.341C2.031,-16.341 -1.576,-19.4 -1.576,-19.4L0,-29.77Z" style="fill-rule:nonzero;"/>
        </g>
        <g transform="matrix(1,0,0,1,189.394,180.184)">
            <path d="M0,27.926L18.859,27.926L22.667,15.589L40.937,19.346L40.937,16.711C40.937,7.496 33.44,0 24.227,0L20.611,0L22.104,9.819L21.711,10.152C21.554,10.285 17.751,13.429 9.429,13.429C1.108,13.429 -2.695,10.285 -2.853,10.152L-3.245,9.819L-1.752,0L-5.368,0C-14.582,0 -22.079,7.496 -22.079,16.711L-22.079,19.346L-3.808,15.589L0,27.926ZM20.219,29.77L-1.36,29.77L-5.076,17.732L-23.921,21.608L-23.921,16.711C-23.921,6.481 -15.599,-1.844 -5.368,-1.844L0.392,-1.844L-1.26,9.027C-0.15,9.744 3.296,11.585 9.429,11.585C15.559,11.585 19.005,9.746 20.119,9.027L18.467,-1.844L24.227,-1.844C34.457,-1.844 42.78,6.481 42.78,16.711L42.78,21.608L23.935,17.732L20.219,29.77Z" style="fill-rule:nonzero;"/>
        </g>
        <g transform="matrix(1,0,0,1,174.615,200.611)">
            <path d="M0,66.677L-5.51,66.677L-9.141,0.1L-7.3,0L-3.765,64.833L0,64.833L0,66.677Z" style="fill-rule:nonzero;"/>
        </g>
        <g transform="matrix(1,0,0,1,228.542,200.611)">
            <path d="M0,66.677L-5.51,66.677L-5.51,64.833L-1.745,64.833L1.79,0L3.631,0.1L0,66.677Z" style="fill-rule:nonzero;"/>
        </g>
        <g transform="matrix(1,0,0,1,206.461,184.984)">
            <path d="M0,13.803L-15.276,13.803C-22.138,13.803 -27.72,8.221 -27.72,1.359L-27.72,0L-19.075,0L-19.075,2.717L-24.909,2.717C-24.246,7.44 -20.179,11.086 -15.276,11.086L0,11.086C4.903,11.086 8.97,7.44 9.633,2.717L3.799,2.717L3.799,0L12.444,0L12.444,1.359C12.444,8.221 6.862,13.803 0,13.803" style="fill:rgb(77,171,178);fill-rule:nonzero;"/>
        </g>
        <g transform="matrix(1,0,0,1,202.683,216.952)">
            <path d="M0,4.418C0,6.549 -1.728,8.277 -3.859,8.277C-5.991,8.277 -7.718,6.549 -7.718,4.418C-7.718,2.286 -3.859,-3.859 -3.859,-3.859C-3.859,-3.859 0,2.286 0,4.418" style="fill-rule:nonzero;"/>
        </g>
        <g transform="matrix(1,0,0,1,188.602,178.754)">
            <path d="M0,10.252C1.21,11.001 4.446,12.578 10.222,12.578C15.991,12.578 19.225,11.005 20.444,10.251L18.615,-2.326L1.829,-2.326L0,10.252ZM10.222,15.295C1.532,15.295 -2.215,12.029 -2.37,11.89L-2.913,11.403L-0.521,-5.043L20.965,-5.043L23.357,11.403L22.814,11.89C22.659,12.029 18.911,15.295 10.222,15.295" style="fill-rule:nonzero;"/>
        </g>
        <g transform="matrix(-0.0544507,-0.998516,-0.998516,0.0544507,206.587,230.852)">
            <rect x="-33.773" y="31.981" width="65.803" height="1.844" style="fill:rgb(245,241,234);"/>
        </g>
        <g transform="matrix(-0.998528,-0.0542383,-0.0542383,0.998528,226.52,200.706)">
            <rect x="-0.058" y="0.001" width="1.858" height="65.803" style="fill:rgb(245,241,234);"/>
        </g>
        <g transform="matrix(1,0,0,1,208.431,233.039)">
            <path d="M0,18.679L-1.78,18.202C-0.803,14.545 1.851,13.108 4.191,11.84C6.49,10.595 8.305,9.613 8.305,6.786C8.305,3.963 6.81,2.914 5.919,2.54C4.604,1.989 3.018,2.208 2.148,3.061L0.857,1.746C2.255,0.374 4.63,0 6.632,0.841C8.867,1.779 10.148,3.946 10.148,6.786C10.148,10.71 7.45,12.171 5.069,13.461C2.86,14.658 0.773,15.787 0,18.679" style="fill:rgb(245,241,234);fill-rule:nonzero;"/>
        </g>
        <g transform="matrix(1,0,0,1,198.823,253.716)">
            <path d="M0,8.732C-2.572,8.732 -25.13,8.606 -25.13,4.268C-25.13,3.428 -25.13,0.872 -7.989,0L-7.896,1.841C-17.473,2.328 -22.149,3.524 -23.16,4.271C-21.692,5.396 -13.122,6.888 0,6.888C13.122,6.888 21.693,5.396 23.16,4.271C22.15,3.524 17.473,2.328 7.896,1.841L7.989,0C25.13,0.872 25.13,3.428 25.13,4.268C25.13,8.606 2.572,8.732 0,8.732" style="fill-rule:nonzero;"/>
        </g>
        <g transform="matrix(1,0,0,1,174.615,275.524)">
            <path d="M0,-17.54L0,-3.542C0,-1.586 10.838,0 24.208,0C37.579,0 48.417,-1.586 48.417,-3.542L48.417,-17.54C48.417,-17.54 48.417,-13.998 24.208,-13.998C0,-13.998 0,-17.54 0,-17.54" style="fill-rule:nonzero;"/>
        </g>
        <g transform="matrix(1,0,0,1,175.536,262.3)">
            <path d="M0,9.569C1.005,10.705 9.709,12.302 23.287,12.302C36.865,12.302 45.57,10.705 46.575,9.569L46.575,-2.326C43.876,-1.037 37.524,0.148 23.287,0.148C9.05,0.148 2.699,-1.037 0,-2.326L0,9.569ZM23.287,14.146C20.715,14.146 -1.843,14.02 -1.843,9.682L-1.843,-4.316L0,-4.316C0,-4.492 -0.05,-4.576 -0.05,-4.577C0.021,-4.459 1.947,-1.696 23.287,-1.696C44.627,-1.696 46.554,-4.459 46.625,-4.577C46.625,-4.576 46.575,-4.492 46.575,-4.316L48.417,-4.316L48.417,9.682C48.417,14.02 25.859,14.146 23.287,14.146" style="fill-rule:nonzero;"/>
        </g>
        <g transform="matrix(1,0,0,1,193.684,231.966)">
            <path d="M0,24.052L0.653,24.117L9.718,24.113L10.278,24.054C12.587,21.709 15.226,15.598 15.326,-0.06L-5.046,-0.06C-4.946,15.594 -2.309,21.706 0,24.052M0.561,25.956L-0.811,25.823L-1.037,25.613C-4.922,22.016 -6.892,13.069 -6.892,-0.982L-6.892,-1.904L17.171,-1.904L17.171,-0.982C17.171,13.069 15.202,22.016 11.317,25.613L11.09,25.823L9.811,25.951L0.561,25.956Z" style="fill:rgb(245,241,234);fill-rule:nonzero;"/>
        </g>
        <g transform="matrix(1,0,0,1,148.392,297.193)">
            <path d="M0,-10.534L2.243,-10.534L2.243,-1.973L6.696,-1.973L6.696,0L0,0L0,-10.534Z" style="fill:rgb(245,241,234);fill-rule:nonzero;"/>
        </g>
        <g transform="matrix(1,0,0,1,162.163,295.392)">
            <path d="M0,-6.917C-1.942,-6.917 -3.19,-5.433 -3.19,-3.458C-3.19,-1.5 -1.942,0 0,0C1.942,0 3.206,-1.5 3.206,-3.458C3.206,-5.433 1.942,-6.917 0,-6.917M0,-8.907C3.189,-8.907 5.512,-6.633 5.512,-3.458C5.512,-0.284 3.189,1.99 0,1.99C-3.175,1.99 -5.496,-0.284 -5.496,-3.458C-5.496,-6.633 -3.175,-8.907 0,-8.907" style="fill:rgb(245,241,234);fill-rule:nonzero;"/>
        </g>
        <g transform="matrix(1,0,0,1,170.704,289.882)">
            <path d="M0,4.121C0.742,4.895 1.895,5.543 3.348,5.543C4.58,5.543 5.18,4.975 5.18,4.374C5.18,3.6 4.201,3.379 3.048,3.095C1.326,2.7 -0.885,2.226 -0.885,-0.174C-0.885,-1.928 0.632,-3.38 3.111,-3.38C4.785,-3.38 6.175,-2.875 7.217,-1.911L5.97,-0.27C5.117,-1.059 3.979,-1.422 2.905,-1.422C1.942,-1.422 1.405,-0.995 1.405,-0.364C1.405,0.315 2.369,0.536 3.506,0.805C5.243,1.216 7.454,1.736 7.454,4.121C7.454,6.048 6.08,7.501 3.237,7.501C1.216,7.501 -0.237,6.822 -1.216,5.827L0,4.121Z" style="fill:rgb(245,241,234);fill-rule:nonzero;"/>
        </g>
        <g transform="matrix(1,0,0,1,182.941,295.219)">
            <path d="M0,-6.585L-3.08,-6.585L-3.08,-8.56L5.322,-8.56L5.322,-6.585L2.258,-6.585L2.258,1.975L0,1.975L0,-6.585Z" style="fill:rgb(245,241,234);fill-rule:nonzero;"/>
        </g>
        <g transform="matrix(1,0,0,1,195.129,291.933)">
            <path d="M0,0.001C0,-3.236 2.447,-5.448 5.606,-5.448C7.928,-5.448 9.271,-4.185 10.013,-2.874L8.086,-1.926C7.644,-2.778 6.696,-3.458 5.606,-3.458C3.695,-3.458 2.306,-1.989 2.306,0.001C2.306,1.99 3.695,3.459 5.606,3.459C6.696,3.459 7.644,2.796 8.086,1.928L10.013,2.859C9.255,4.17 7.928,5.449 5.606,5.449C2.447,5.449 0,3.238 0,0.001" style="fill:rgb(245,241,234);fill-rule:nonzero;"/>
        </g>
        <g transform="matrix(1,0,0,1,210.036,290.418)">
            <path d="M0,3.016L3.285,3.016L1.643,-1.516L0,3.016ZM3.9,4.991L-0.616,4.991L-1.279,6.775L-3.838,6.775L0.236,-3.759L3.048,-3.759L7.106,6.775L4.548,6.775L3.9,4.991Z" style="fill:rgb(245,241,234);fill-rule:nonzero;"/>
        </g>
        <g transform="matrix(1,0,0,1,218.545,297.383)">
            <path d="M0,-10.724L2.274,-10.724L2.274,-4.47C2.274,-3.001 3.127,-1.991 4.754,-1.991C6.381,-1.991 7.218,-3.001 7.218,-4.47L7.218,-10.724L9.508,-10.724L9.508,-4.407C9.508,-1.785 7.96,0 4.754,0C1.548,0 0,-1.801 0,-4.391L0,-10.724Z" style="fill:rgb(245,241,234);fill-rule:nonzero;"/>
        </g>
        <g transform="matrix(1,0,0,1,231.572,289.882)">
            <path d="M0,4.121C0.742,4.895 1.895,5.543 3.348,5.543C4.58,5.543 5.18,4.975 5.18,4.374C5.18,3.6 4.201,3.379 3.048,3.095C1.326,2.7 -0.885,2.226 -0.885,-0.174C-0.885,-1.928 0.632,-3.38 3.111,-3.38C4.785,-3.38 6.175,-2.875 7.217,-1.911L5.97,-0.27C5.117,-1.059 3.979,-1.422 2.905,-1.422C1.942,-1.422 1.405,-0.995 1.405,-0.364C1.405,0.315 2.369,0.536 3.506,0.805C5.243,1.216 7.454,1.736 7.454,4.121C7.454,6.048 6.08,7.501 3.237,7.501C1.216,7.501 -0.237,6.822 -1.216,5.827L0,4.121Z" style="fill:rgb(245,241,234);fill-rule:nonzero;"/>
        </g>
        <g transform="matrix(1,0,0,1,241.487,297.193)">
            <path d="M0,-10.534L7.454,-10.534L7.454,-8.559L2.243,-8.559L2.243,-6.333L7.344,-6.333L7.344,-4.358L2.243,-4.358L2.243,-1.973L7.454,-1.973L7.454,0L0,0L0,-10.534Z" style="fill:rgb(245,241,234);fill-rule:nonzero;"/>
        </g>
        <g transform="matrix(1,0,0,1,203.434,237.888)">
            <path d="M0,6.122C-0.625,4.085 -2.478,2.717 -4.61,2.717C-6.743,2.717 -8.595,4.085 -9.22,6.122L-11.818,5.325C-10.841,2.14 -7.944,0 -4.61,0C-1.277,0 1.62,2.14 2.598,5.325L0,6.122Z" style="fill-rule:nonzero;"/>
        </g>
        <g transform="matrix(1,0,0,1,183.207,224.307)">
            <path d="M0,-5.815C-1.603,-5.815 -2.908,-4.511 -2.908,-2.908C-2.908,-1.304 -1.603,0 0,0C1.604,0 2.908,-1.304 2.908,-2.908C2.908,-4.511 1.604,-5.815 0,-5.815M0,1.844C-2.62,1.844 -4.75,-0.288 -4.75,-2.908C-4.75,-5.527 -2.62,-7.659 0,-7.659C2.62,-7.659 4.751,-5.527 4.751,-2.908C4.751,-0.288 2.62,1.844 0,1.844" style="fill:rgb(245,241,234);fill-rule:nonzero;"/>
        </g>
        <g transform="matrix(1,0,0,1,214.44,224.307)">
            <path d="M0,-5.815C-1.603,-5.815 -2.908,-4.511 -2.908,-2.908C-2.908,-1.304 -1.603,0 0,0C1.604,0 2.908,-1.304 2.908,-2.908C2.908,-4.511 1.604,-5.815 0,-5.815M0,1.844C-2.62,1.844 -4.75,-0.288 -4.75,-2.908C-4.75,-5.527 -2.62,-7.659 0,-7.659C2.62,-7.659 4.751,-5.527 4.751,-2.908C4.751,-0.288 2.62,1.844 0,1.844" style="fill:rgb(245,241,234);fill-rule:nonzero;"/>
        </g>
    </g>
</svg>
