<?xml version="1.0" encoding="UTF-8" standalone="no"?><!DOCTYPE svg PUBLIC "-//W3C//DTD SVG 1.1//EN" "http://www.w3.org/Graphics/SVG/1.1/DTD/svg11.dtd"><svg width="100%" height="100%" viewBox="0 0 9 9" version="1.1" xmlns="http://www.w3.org/2000/svg" xmlns:xlink="http://www.w3.org/1999/xlink" xml:space="preserve" xmlns:serif="http://www.serif.com/" style="fill-rule:evenodd;clip-rule:evenodd;stroke-miterlimit:10;"><path d="M8.268,4.134c0,2.283 -1.851,4.134 -4.134,4.134c-2.283,0 -4.134,-1.851 -4.134,-4.134c0,-2.283 1.851,-4.134 4.134,-4.134c2.283,0 4.134,1.851 4.134,4.134" style="fill-rule:nonzero;"/><path d="M4.173,6.753l0,-2.504" style="fill:none;stroke:#fff;stroke-width:0.24px;"/><path d="M5.312,5.577l-1.139,1.23l-1.14,-1.23" style="fill:none;stroke:#fff;stroke-width:0.24px;"/><path d="M2.61,3.519l0,-1.28l-0.273,0l0,0.804l-0.593,-0.804l-0.28,0l0,1.28l0.272,0l0,-0.835l0.611,0.835l0.263,0Z" style="fill:#fff;fill-rule:nonzero;"/><path d="M3.962,3.519l0,-0.24l-0.634,0l0,-0.292l0.62,0l0,-0.24l-0.62,0l0,-0.268l0.634,0l0,-0.24l-0.907,0l0,1.28l0.907,0Z" style="fill:#fff;fill-rule:nonzero;"/><path d="M5.528,3.519l-0.464,-0.658l0.435,-0.622l-0.328,0l-0.29,0.437l-0.294,-0.437l-0.324,0l0.436,0.624l-0.465,0.656l0.325,0l0.322,-0.468l0.321,0.468l0.326,0Z" style="fill:#fff;fill-rule:nonzero;"/><path d="M6.411,3.519l0,-1.04l0.373,0l0,-0.24l-1.021,0l0,0.24l0.374,0l0,1.04l0.274,0Z" style="fill:#fff;fill-rule:nonzero;"/></svg>