<?xml version="1.0" encoding="UTF-8" standalone="no"?>
<!DOCTYPE svg PUBLIC "-//W3C//DTD SVG 1.1//EN" "http://www.w3.org/Graphics/SVG/1.1/DTD/svg11.dtd">
<svg width="100%" height="100%" viewBox="0 0 33 46" version="1.1" xmlns="http://www.w3.org/2000/svg" xmlns:xlink="http://www.w3.org/1999/xlink" xml:space="preserve" xmlns:serif="http://www.serif.com/" style="fill-rule:evenodd;clip-rule:evenodd;stroke-linejoin:round;stroke-miterlimit:1.41421;">
    <g transform="matrix(0.24,0,0,0.24,-31.2177,-32.9747)">
        <g transform="matrix(1,0,0,1,254.121,141.429)">
            <path d="M0,183.011L-112.241,183.011C-116.532,183.011 -120.012,179.532 -120.012,175.24L-120.012,63.89C-120.012,28.605 -91.406,0 -56.121,0C-20.835,0 7.77,28.605 7.77,63.89L7.77,175.24C7.77,179.532 4.291,183.011 0,183.011" style="fill:rgb(77,171,178);fill-rule:nonzero;"/>
        </g>
        <g transform="matrix(1,0,0,1,198,320.407)">
            <path d="M0,-174.942C-33.004,-174.942 -59.855,-148.091 -59.855,-115.088L-59.855,-3.737C-59.855,-1.677 -58.18,-0.003 -56.12,-0.003L56.12,-0.003C58.18,-0.003 59.855,-1.677 59.855,-3.737L59.855,-115.088C59.855,-148.091 33.004,-174.942 0,-174.942M56.12,8.07L-56.12,8.07C-62.63,8.07 -67.926,2.773 -67.926,-3.737L-67.926,-115.088C-67.926,-152.542 -37.455,-183.012 0,-183.012C37.455,-183.012 67.926,-152.542 67.926,-115.088L67.926,-3.737C67.926,2.773 62.63,8.07 56.12,8.07" style="fill-rule:nonzero;"/>
        </g>
        <g transform="matrix(-1,0,0,1,397.999,-228.869)">
            <rect x="197.641" y="425.911" width="2.717" height="30.688"/>
        </g>
        <g transform="matrix(1,0,0,1,203.754,195.133)">
            <path d="M0,-0.001C0,2.624 -2.129,4.753 -4.754,4.753C-7.379,4.753 -9.507,2.624 -9.507,-0.001C-9.507,-2.626 -7.379,-4.754 -4.754,-4.754C-2.129,-4.754 0,-2.626 0,-0.001" style="fill:rgb(245,241,234);fill-rule:nonzero;"/>
        </g>
        <g transform="matrix(1,0,0,1,180.68,217.76)">
            <path d="M0,64.295L36.769,64.295L36.769,0L-4.975,0L0,8.435L0,64.295ZM39.485,67.012L-2.717,67.012L-2.717,9.177L-9.73,-2.717L39.485,-2.717L39.485,67.012Z" style="fill-rule:nonzero;"/>
        </g>
        <g transform="matrix(1,0,0,1,218.807,205.49)">
            <path d="M0,7.037L-39.615,7.037C-39.615,3.15 -36.465,0 -32.578,0L-7.037,0C-3.15,0 0,3.15 0,7.037" style="fill:rgb(245,241,234);fill-rule:nonzero;"/>
        </g>
        <g transform="matrix(1,0,0,1,0,-107.939)">
            <rect x="179.322" y="370.227" width="39.485" height="21.126"/>
        </g>
        <g transform="matrix(1,0,0,1,156.452,183.071)">
            <path d="M0,11.992C-3.904,10.061 -5.076,5.803 -3.156,1.918C-1.647,-1.133 0.883,-1.91 2.963,-1.92L2.902,1.541C1.692,1.461 0.324,2.129 -0.275,3.342C-1.297,5.408 -0.426,7.654 1.64,8.676C3.705,9.696 6.019,9.024 7.04,6.959C7.64,5.746 7.34,4.253 6.541,3.34L9.255,1.19C10.481,2.811 11.429,5.332 9.921,8.383C8,12.267 3.885,13.912 0,11.992" style="fill-rule:nonzero;"/>
        </g>
        <g transform="matrix(1,0,0,1,170.809,176.267)">
            <path d="M0,-6.657C-1.914,-5.3 -2.111,-2.984 -0.779,-1.104C0.541,0.758 2.804,1.356 4.718,-0.001C6.614,-1.345 6.8,-3.678 5.479,-5.541C4.147,-7.421 1.896,-8.001 0,-6.657M-1.857,-9.277C1.66,-11.771 6.017,-11.18 8.497,-7.68C10.979,-4.179 10.093,0.126 6.576,2.619C3.059,5.114 -1.315,4.534 -3.797,1.034C-6.277,-2.466 -5.375,-6.784 -1.857,-9.277" style="fill-rule:nonzero;"/>
        </g>
        <g transform="matrix(1,0,0,1,185.761,171.667)">
            <path d="M0,-12.421L10.223,-13.943L10.689,-10.808L4.062,-9.821L4.387,-7.647L10.867,-8.611L11.334,-5.476L4.854,-4.511L5.672,0.986L2.076,1.522L0,-12.421Z" style="fill-rule:nonzero;"/>
        </g>
        <g transform="matrix(1,0,0,1,206.612,173.034)">
            <path d="M0,-14.563L9.969,-11.817L9.126,-8.759L2.664,-10.539L2.08,-8.418L8.399,-6.678L7.557,-3.621L1.237,-5.361L-0.239,0L-3.746,-0.965L0,-14.563Z" style="fill-rule:nonzero;"/>
        </g>
        <g transform="matrix(1,0,0,1,226.016,183.71)">
            <path d="M0,-17.451L7.97,-10.87L5.95,-8.426L0.784,-12.691L-0.615,-10.997L4.437,-6.825L2.418,-4.38L-2.634,-8.553L-4.154,-6.711L1.012,-2.444L-1.008,0L-8.977,-6.581L0,-17.451Z" style="fill-rule:nonzero;"/>
        </g>
        <g transform="matrix(1,0,0,1,240.647,196.888)">
            <path d="M0,-15.528L4.597,-6.268L1.756,-4.859L-1.224,-10.862L-3.193,-9.883L-0.279,-4.013L-3.12,-2.604L-6.033,-8.474L-8.173,-7.412L-5.193,-1.409L-8.034,0L-12.631,-9.259L0,-15.528Z" style="fill-rule:nonzero;"/>
        </g>
        <g transform="matrix(1,0,0,1,152.062,304.657)">
            <path d="M0,-2.219L0,5.938L-3.636,5.938L-3.636,-8.157L0.105,-8.157L5.812,-0.402L5.812,-8.157L9.468,-8.157L9.468,5.938L5.959,5.938L0,-2.219Z" style="fill-rule:nonzero;"/>
        </g>
        <g transform="matrix(1,0,0,1,175.123,307.637)">
            <path d="M0,-8.158C-2.346,-8.158 -3.846,-6.383 -3.846,-4.079C-3.846,-1.797 -2.346,-0.001 0,-0.001C2.325,-0.001 3.825,-1.797 3.825,-4.079C3.825,-6.383 2.325,-8.158 0,-8.158M0,-11.37C4.312,-11.37 7.523,-8.369 7.523,-4.079C7.523,0.211 4.312,3.212 0,3.212C-4.311,3.212 -7.544,0.211 -7.544,-4.079C-7.544,-8.369 -4.311,-11.37 0,-11.37" style="fill-rule:nonzero;"/>
        </g>
        <g transform="matrix(1,0,0,1,186.795,310.596)">
            <path d="M0,-14.096L4.121,-14.096L7.587,-3.931L11.074,-14.096L15.195,-14.096L9.869,0L5.305,0L0,-14.096Z" style="fill-rule:nonzero;"/>
        </g>
        <g transform="matrix(1,0,0,1,0,-46.545)">
            <rect x="207.256" y="343.045" width="3.636" height="14.096"/>
        </g>
        <g transform="matrix(1,0,0,1,216.938,303.558)">
            <path d="M0,0C0,-4.354 3.297,-7.291 7.629,-7.291C11.031,-7.291 12.849,-5.368 13.778,-3.509L10.651,-2.029C10.186,-3.149 8.981,-4.079 7.629,-4.079C5.325,-4.079 3.698,-2.304 3.698,0C3.698,2.304 5.325,4.078 7.629,4.078C8.981,4.078 10.186,3.148 10.651,2.028L13.778,3.508C12.87,5.325 11.031,7.291 7.629,7.291C3.297,7.291 0,4.332 0,0" style="fill-rule:nonzero;"/>
        </g>
        <g transform="matrix(1,0,0,1,236.512,310.596)">
            <path d="M0,-14.096L10.335,-14.096L10.335,-10.926L3.636,-10.926L3.636,-8.729L10.187,-8.729L10.187,-5.558L3.636,-5.558L3.636,-3.17L10.335,-3.17L10.335,0L0,0L0,-14.096Z" style="fill-rule:nonzero;"/>
        </g>
        <g transform="matrix(1,0,0,1,199.065,253.032)">
            <path d="M0,-15.412L5.898,-21.944L5.449,-13.155L14.239,-13.603L7.706,-7.706L14.239,-1.808L5.449,-2.257L5.898,6.532L0,0L-5.897,6.532L-5.448,-2.257L-14.238,-1.808L-7.705,-7.706L-14.238,-13.603L-5.448,-13.155L-5.897,-21.944L0,-15.412Z" style="fill:rgb(245,241,234);fill-rule:nonzero;"/>
        </g>
        <g transform="matrix(-1,0,0,1,398.129,-200.51)">
            <rect x="179.322" y="425.717" width="39.485" height="2.717"/>
        </g>
        <g transform="matrix(1,0,0,1,151.498,246.996)">
            <path d="M0,-0.113L1.117,-10.496L12.136,-10.496L12.136,-7.468L3.918,-7.468L3.395,-2.589C3.725,-2.777 4.163,-2.961 4.71,-3.14C5.257,-3.319 5.889,-3.409 6.605,-3.409C7.576,-3.409 8.446,-3.249 9.215,-2.928C9.983,-2.607 10.632,-2.147 11.16,-1.549C11.688,-0.95 12.094,-0.223 12.377,0.629C12.659,1.483 12.801,2.448 12.801,3.523C12.801,4.475 12.667,5.368 12.397,6.202C12.129,7.037 11.719,7.764 11.167,8.381C10.615,8.999 9.92,9.487 9.081,9.845C8.241,10.203 7.251,10.383 6.11,10.383C5.252,10.383 4.43,10.258 3.642,10.008C2.854,9.758 2.154,9.39 1.541,8.905C0.929,8.419 0.426,7.813 0.035,7.087C-0.356,6.361 -0.58,5.517 -0.637,4.555L2.631,4.555C2.763,5.574 3.135,6.349 3.748,6.882C4.361,7.414 5.148,7.681 6.11,7.681C6.667,7.681 7.152,7.577 7.567,7.369C7.982,7.162 8.326,6.872 8.6,6.5C8.873,6.127 9.078,5.68 9.215,5.157C9.352,4.633 9.42,4.06 9.42,3.438C9.42,2.843 9.343,2.296 9.187,1.796C9.031,1.297 8.798,0.866 8.486,0.502C8.176,0.139 7.789,-0.146 7.327,-0.353C6.864,-0.561 6.332,-0.665 5.729,-0.665C5.323,-0.665 4.974,-0.634 4.682,-0.573C4.39,-0.511 4.128,-0.426 3.896,-0.318C3.665,-0.21 3.456,-0.08 3.268,0.071C3.078,0.222 2.89,0.382 2.701,0.552L0,-0.113Z" style="fill:rgb(245,241,234);fill-rule:nonzero;"/>
        </g>
        <g transform="matrix(1,0,0,1,239.248,247.591)">
            <path d="M0,-1.386C-0.387,-1.386 -0.76,-1.327 -1.118,-1.209C-1.477,-1.091 -1.807,-0.927 -2.107,-0.714C-2.41,-0.502 -2.679,-0.245 -2.914,0.056C-3.15,0.358 -3.339,0.688 -3.48,1.047L-3.48,2.009C-3.48,2.848 -3.388,3.581 -3.204,4.208C-3.021,4.836 -2.769,5.361 -2.447,5.785C-2.127,6.21 -1.759,6.528 -1.344,6.74C-0.929,6.952 -0.486,7.058 -0.015,7.058C0.514,7.058 0.985,6.955 1.4,6.747C1.815,6.54 2.166,6.25 2.454,5.878C2.741,5.505 2.961,5.062 3.111,4.548C3.263,4.034 3.338,3.47 3.338,2.857C3.338,2.282 3.268,1.738 3.126,1.223C2.984,0.71 2.772,0.26 2.489,-0.127C2.206,-0.514 1.857,-0.821 1.442,-1.047C1.027,-1.273 0.547,-1.386 0,-1.386M3.663,-11.175L3.663,-8.289L3.438,-8.289C2.277,-8.289 1.28,-8.126 0.445,-7.801C-0.39,-7.476 -1.082,-7.034 -1.634,-6.479C-2.186,-5.922 -2.605,-5.274 -2.893,-4.533C-3.181,-3.793 -3.362,-3.003 -3.438,-2.164C-3.211,-2.419 -2.952,-2.661 -2.659,-2.893C-2.367,-3.123 -2.042,-3.331 -1.684,-3.515C-1.325,-3.699 -0.938,-3.845 -0.523,-3.953C-0.108,-4.062 0.334,-4.116 0.806,-4.116C1.815,-4.116 2.689,-3.923 3.43,-3.536C4.17,-3.15 4.781,-2.638 5.262,-2.001C5.743,-1.365 6.101,-0.634 6.337,0.191C6.572,1.016 6.69,1.872 6.69,2.759C6.69,3.749 6.542,4.671 6.245,5.524C5.948,6.378 5.517,7.12 4.95,7.752C4.385,8.384 3.687,8.881 2.857,9.244C2.027,9.607 1.084,9.789 0.028,9.789C-1.095,9.789 -2.084,9.567 -2.942,9.124C-3.801,8.68 -4.52,8.089 -5.1,7.348C-5.68,6.608 -6.12,5.753 -6.422,4.781C-6.725,3.81 -6.875,2.792 -6.875,1.725L-6.875,0.41C-6.875,-0.599 -6.8,-1.586 -6.648,-2.553C-6.498,-3.52 -6.255,-4.432 -5.92,-5.29C-5.585,-6.149 -5.151,-6.939 -4.619,-7.659C-4.086,-8.381 -3.444,-9.001 -2.695,-9.52C-1.945,-10.038 -1.075,-10.444 -0.085,-10.737C0.905,-11.029 2.027,-11.175 3.281,-11.175L3.663,-11.175Z" style="fill:rgb(245,241,234);fill-rule:nonzero;"/>
        </g>
    </g>
</svg>
