<?xml version="1.0" encoding="UTF-8" standalone="no"?>
<!DOCTYPE svg PUBLIC "-//W3C//DTD SVG 1.1//EN" "http://www.w3.org/Graphics/SVG/1.1/DTD/svg11.dtd">
<svg width="100%" height="100%" viewBox="0 0 1988 667" version="1.1" xmlns="http://www.w3.org/2000/svg" xmlns:xlink="http://www.w3.org/1999/xlink" xml:space="preserve" xmlns:serif="http://www.serif.com/" style="fill-rule:evenodd;clip-rule:evenodd;stroke-linejoin:round;stroke-miterlimit:2;">
    <g transform="matrix(1,0,0,1,-235.621,-291.529)">
        <g transform="matrix(4.16667,0,0,4.16667,0,0)">
            <path d="M135.891,137.582C131.752,141.333 125.951,143.207 118.491,143.207L89.03,143.207L89.03,97.141L118.491,97.141C125.951,97.141 131.752,98.876 135.891,102.342C140.031,105.809 142.102,111.613 142.102,119.749C142.102,127.887 140.031,133.832 135.891,137.582ZM160.77,82.069C151.562,74.001 139.215,69.967 123.728,69.967L56.549,69.967L56.549,226.425L89.03,226.425L89.03,170.168L121.607,170.168C138.606,170.168 151.685,166.346 160.843,158.704C170.002,151.062 174.582,138.006 174.582,119.537C174.582,102.625 169.979,90.135 160.77,82.069Z" style="fill:white;fill-rule:nonzero;"/>
        </g>
        <g transform="matrix(4.16667,0,0,4.16667,0,0)">
            <path d="M248.977,181.419C248.761,191.539 245.871,198.508 240.302,202.33C234.732,206.152 228.644,208.062 222.033,208.062C217.865,208.062 214.326,206.912 211.417,204.611C208.506,202.313 207.052,198.579 207.052,193.413C207.052,187.613 209.433,183.33 214.198,180.57C217.012,178.943 221.648,177.563 228.103,176.431L234.99,175.157C238.432,174.52 241.139,173.83 243.113,173.087C245.084,172.343 247.04,171.372 248.977,170.168L248.977,181.419ZM281.14,218.463C280.149,217.05 279.548,214.361 279.336,210.397C279.194,205.161 279.124,200.703 279.124,197.023L279.124,143.95C279.124,130.01 274.185,120.529 264.307,115.504C254.427,110.48 243.128,107.967 230.407,107.967C210.861,107.967 197.074,113.062 189.044,123.252C183.996,129.763 181.154,138.077 180.515,148.196L209.705,148.196C210.422,143.738 211.856,140.2 214.009,137.582C217.021,134.044 222.151,132.274 229.395,132.274C235.85,132.274 240.746,133.177 244.081,134.981C247.417,136.785 249.085,140.059 249.085,144.799C249.085,148.692 246.91,151.557 242.562,153.397C240.137,154.458 236.11,155.344 230.48,156.051L220.108,157.324C208.345,158.811 199.434,161.288 193.374,164.755C182.325,171.123 176.8,181.419 176.8,195.643C176.8,206.612 180.234,215.085 187.103,221.065C193.971,227.043 202.672,230.033 213.207,230.033C221.463,230.033 228.866,228.157 235.414,224.408C240.894,221.223 245.735,217.367 249.934,212.838C250.147,215.457 250.428,217.791 250.783,219.843C251.137,221.897 251.774,224.09 252.694,226.425L285.599,226.425L285.599,221.967C283.617,221.047 282.131,219.88 281.14,218.463Z" style="fill:white;fill-rule:nonzero;"/>
        </g>
        <g transform="matrix(4.16667,0,0,4.16667,0,0)">
            <path d="M326.003,154.9L326.003,70.499L296.284,70.499L296.284,226.425L326.003,226.425L326.003,190.017L338.533,176.992L366.566,226.425L403.384,226.425L360.308,154.359L401.268,111.788L363.696,111.788L326.003,154.9Z" style="fill:white;fill-rule:nonzero;"/>
        </g>
        <g transform="matrix(4.16667,0,0,4.16667,0,0)">
            <path d="M455.028,79.521L425.094,79.521L425.094,111.788L409.961,111.788L408.961,111.788L408.961,133.336L425.094,133.336L425.094,204.559C425.094,211.777 426.793,217.121 430.189,220.587C435.425,226.037 445.191,228.511 459.486,228.018L473.816,227.486L473.816,204.878C472.823,204.949 471.815,205.002 470.79,205.037C469.762,205.073 468.789,205.089 467.87,205.089C461.713,205.089 458.033,204.506 456.831,203.338C455.628,202.17 455.028,199.216 455.028,194.475L455.028,133.336L473.816,133.336L473.816,111.788L455.028,111.788L455.028,79.521Z" style="fill:white;fill-rule:nonzero;"/>
        </g>
        <g transform="matrix(4.16667,0,0,4.16667,0,0)">
            <path d="M521.783,185.396L498.45,185.396L486.783,205.603L498.45,225.811L521.783,225.811L533.45,205.603L521.783,185.396Z" style="fill:white;fill-rule:nonzero;"/>
        </g>
    </g>
</svg>
