<?xml version="1.0" encoding="UTF-8" standalone="no"?><!DOCTYPE svg PUBLIC "-//W3C//DTD SVG 1.1//EN" "http://www.w3.org/Graphics/SVG/1.1/DTD/svg11.dtd"><svg width="100%" height="100%" viewBox="0 0 23 10" version="1.1" xmlns="http://www.w3.org/2000/svg" xmlns:xlink="http://www.w3.org/1999/xlink" xml:space="preserve" xmlns:serif="http://www.serif.com/" style="fill-rule:evenodd;clip-rule:evenodd;stroke-linejoin:round;stroke-miterlimit:1.41421;"><path d="M4.994,4.533l0,0.002l-1.401,0c-0.075,0 -0.135,-0.06 -0.135,-0.134l0,-0.996c0,-0.074 0.06,-0.134 0.135,-0.134l1.401,0l0,0.002c0.363,0.024 0.648,0.298 0.648,0.629c0,0.333 -0.285,0.605 -0.648,0.631Zm0.19,-1.908c-0.022,0 -0.082,0 -0.106,0l-1.62,0l-0.609,0c-0.075,0 -0.135,0.06 -0.135,0.134l0,4.037c0,0.075 0.06,0.135 0.135,0.135l0.477,0c0.075,0 0.132,-0.06 0.132,-0.135l0,-1.471c0,-0.074 0.06,-0.134 0.135,-0.134l1.644,0l0,-0.008c0.595,-0.05 1.065,-0.602 1.065,-1.276c0,-0.675 -0.451,-1.227 -1.046,-1.277l-0.11,-0.007" style="fill:#fff;fill-rule:nonzero;"/><path d="M8.057,4.965l0.427,-0.917c0.034,-0.074 0.142,-0.074 0.175,0l0.425,0.917c0.029,0.062 -0.017,0.132 -0.086,0.132l-0.852,0c-0.07,0 -0.118,-0.07 -0.089,-0.132Zm0.919,-1.982l-0.106,-0.228l-0.038,-0.084c-0.017,-0.034 -0.05,-0.056 -0.089,-0.056l-0.343,0c-0.038,0 -0.074,0.022 -0.089,0.056l-1.713,3.674l-0.003,0l-0.211,0.454c-0.029,0.062 0.017,0.132 0.086,0.132l0.61,0.007c0.038,0 0.074,-0.022 0.089,-0.055l0.475,-1.025c0.017,-0.034 0.05,-0.055 0.089,-0.055l1.677,0c0.039,0 0.072,0.021 0.089,0.055l0.473,1.025c0.017,0.033 0.05,0.055 0.089,0.055l0.609,-0.007c0.07,0 0.118,-0.07 0.089,-0.132l-1.783,-3.816Z" style="fill:#fff;fill-rule:nonzero;"/><path d="M15.617,6.779l-1.69,-2.316c-0.026,-0.036 -0.024,-0.086 0.01,-0.117l1.577,-1.57c0.06,-0.057 0.016,-0.156 -0.065,-0.156l-0.701,0.005c-0.022,0 -0.046,0.01 -0.062,0.026l-1.956,1.904c-0.058,0.055 -0.156,0.014 -0.156,-0.065l0,-1.774c0,-0.05 -0.041,-0.091 -0.092,-0.091l-0.564,0c-0.05,0 -0.091,0.041 -0.091,0.091l0,4.123c0,0.051 0.041,0.092 0.091,0.092l0.564,0c0.051,0 0.092,-0.041 0.092,-0.092l0,-1.104c0,-0.024 0.009,-0.048 0.026,-0.064l0.677,-0.67c0.038,-0.041 0.103,-0.036 0.137,0.01l1.416,1.879c0.016,0.021 0.043,0.036 0.072,0.036l0.64,0c0.077,0 0.12,-0.084 0.075,-0.147Z" style="fill:#fff;fill-rule:nonzero;"/><path d="M20.054,2.764c0,-0.077 -0.062,-0.141 -0.139,-0.141l-1.229,0l-0.746,0l-1.226,0c-0.08,0 -0.142,0.064 -0.142,0.141l0,0.466c0,0.077 0.062,0.139 0.142,0.139l1.084,0c0.08,0 0.142,0.065 0.142,0.142l0,3.278c0,0.077 0.062,0.142 0.142,0.142l0.463,0c0.079,0 0.141,-0.065 0.141,-0.142l0,-3.278c0,-0.077 0.063,-0.142 0.142,-0.142l1.087,0c0.077,0 0.139,-0.062 0.139,-0.139l0,-0.466Z" style="fill:#fff;fill-rule:nonzero;"/><path d="M22.447,7.931c0,0.269 -0.209,0.495 -0.477,0.514l-10.546,0.787c-0.026,0 -0.053,0 -0.077,0l-10.548,-0.787c-0.269,-0.019 -0.477,-0.245 -0.477,-0.514l0,-6.309c0,-0.269 0.208,-0.495 0.477,-0.514l10.548,-0.787c0.024,0 0.051,0 0.077,0l10.546,0.787c0.268,0.019 0.477,0.245 0.477,0.514l0,6.309Zm-0.453,-7.144l-10.546,-0.785c-0.043,-0.003 -0.084,-0.003 -0.125,0l-10.548,0.785c-0.437,0.033 -0.775,0.398 -0.775,0.835l0,6.307c0,0.439 0.338,0.804 0.775,0.835l10.548,0.787c0.041,0.003 0.082,0.003 0.125,0l10.546,-0.787c0.436,-0.031 0.775,-0.396 0.775,-0.835l0,-6.307c0,-0.437 -0.339,-0.802 -0.775,-0.835Z" style="fill:#fff;fill-rule:nonzero;"/></svg>