<?xml version="1.0" encoding="UTF-8" standalone="no"?><!DOCTYPE svg PUBLIC "-//W3C//DTD SVG 1.1//EN" "http://www.w3.org/Graphics/SVG/1.1/DTD/svg11.dtd"><svg width="100%" height="100%" viewBox="0 0 11 7" version="1.1" xmlns="http://www.w3.org/2000/svg" xmlns:xlink="http://www.w3.org/1999/xlink" xml:space="preserve" xmlns:serif="http://www.serif.com/" style="fill-rule:evenodd;clip-rule:evenodd;stroke-miterlimit:10;"><path d="M5.338,1.26l0,2.504" style="fill:none;stroke:#000;stroke-width:0.24px;"/><path d="M4.199,2.436l1.139,-1.23l1.14,1.23" style="fill:none;stroke:#000;stroke-width:0.24px;"/><path d="M0.273,6.004l0,-0.457l0.326,0c0.277,0 0.43,-0.188 0.43,-0.411c0,-0.224 -0.152,-0.412 -0.43,-0.412l-0.599,0l0,1.28l0.273,0Zm0.288,-0.697l-0.288,0l0,-0.343l0.288,0c0.107,0 0.19,0.065 0.19,0.172c0,0.106 -0.083,0.171 -0.19,0.171Z" style="fill-rule:nonzero;"/><path d="M2.431,6.004l-0.29,-0.487c0.138,-0.033 0.282,-0.156 0.282,-0.381c0,-0.238 -0.165,-0.412 -0.432,-0.412l-0.599,0l0,1.28l0.273,0l0,-0.455l0.199,0l0.252,0.455l0.315,0Zm-0.478,-0.695l-0.288,0l0,-0.345l0.288,0c0.107,0 0.19,0.065 0.19,0.17c0,0.11 -0.083,0.175 -0.19,0.175Z" style="fill-rule:nonzero;"/><path d="M3.725,6.004l0,-0.24l-0.634,0l0,-0.292l0.62,0l0,-0.24l-0.62,0l0,-0.268l0.634,0l0,-0.24l-0.906,0l0,1.28l0.906,0Z" style="fill-rule:nonzero;"/><path d="M4.831,6.004l0.493,-1.28l-0.309,0l-0.355,0.983l-0.355,-0.983l-0.309,0l0.493,1.28l0.342,0Z" style="fill-rule:nonzero;"/><rect x="5.635" y="4.724" width="0.273" height="1.281" style="fill-rule:nonzero;"/><path d="M6.962,6.027c0.386,0 0.668,-0.276 0.668,-0.662c0,-0.386 -0.282,-0.663 -0.668,-0.663c-0.388,0 -0.67,0.277 -0.67,0.663c0,0.386 0.282,0.662 0.67,0.662Zm0,-0.242c-0.238,0 -0.39,-0.182 -0.39,-0.42c0,-0.24 0.152,-0.421 0.39,-0.421c0.236,0 0.388,0.181 0.388,0.421c0,0.238 -0.152,0.42 -0.388,0.42Z" style="fill-rule:nonzero;"/><path d="M8.592,6.027c0.39,0 0.578,-0.219 0.578,-0.535l0,-0.768l-0.278,0l0,0.76c0,0.178 -0.102,0.301 -0.3,0.301c-0.198,0 -0.301,-0.123 -0.301,-0.301l0,-0.76l-0.277,0l0,0.768c0,0.316 0.188,0.535 0.578,0.535Z" style="fill-rule:nonzero;"/><path d="M10.072,6.027c0.344,0 0.513,-0.176 0.513,-0.411c0,-0.478 -0.735,-0.341 -0.735,-0.543c0,-0.077 0.065,-0.127 0.18,-0.127c0.131,0 0.269,0.044 0.373,0.14l0.151,-0.203c-0.126,-0.117 -0.295,-0.179 -0.499,-0.179c-0.301,0 -0.486,0.177 -0.486,0.39c0,0.482 0.738,0.327 0.738,0.549c0,0.075 -0.071,0.142 -0.223,0.142c-0.177,0 -0.317,-0.08 -0.407,-0.174l-0.15,0.213c0.121,0.121 0.298,0.203 0.545,0.203Z" style="fill-rule:nonzero;"/></svg>