<?xml version="1.0" encoding="UTF-8" standalone="no"?>
<!DOCTYPE svg PUBLIC "-//W3C//DTD SVG 1.1//EN" "http://www.w3.org/Graphics/SVG/1.1/DTD/svg11.dtd">
<svg width="100%" height="100%" viewBox="0 0 46 49" version="1.1" xmlns="http://www.w3.org/2000/svg" xmlns:xlink="http://www.w3.org/1999/xlink" xml:space="preserve" xmlns:serif="http://www.serif.com/" style="fill-rule:evenodd;clip-rule:evenodd;stroke-linejoin:round;stroke-miterlimit:1.41421;">
    <g transform="matrix(0.24,0,0,0.24,-131.558,-31.7226)">
        <g transform="matrix(1,0,0,1,730.979,201.53)">
            <path d="M0,61.094C-8.822,84.818 -26.107,112.541 -59.773,123.872C-77.853,129.957 -97.543,129.957 -115.623,123.873C-149.294,112.543 -166.583,84.822 -175.406,61.098C-183.449,39.474 -178.242,15.143 -162.31,-1.545L-110.391,-55.919C-98.031,-68.863 -77.365,-68.863 -65.007,-55.918L-13.096,-1.543C2.835,15.143 8.041,39.472 0,61.094" style="fill-rule:nonzero;"/>
        </g>
        <g transform="matrix(1,0,0,1,656.534,161.519)">
            <path d="M0,15.111C0,22.402 -5.91,28.312 -13.2,28.312C-20.491,28.312 -26.4,22.402 -26.4,15.111C-26.4,7.821 -13.2,-13.201 -13.2,-13.201C-13.2,-13.201 0,7.821 0,15.111" style="fill:rgb(77,171,178);fill-rule:nonzero;"/>
        </g>
        <g transform="matrix(-1,0,0,1,841.807,-36.221)">
            <rect x="171.235" y="343.547" width="54.062" height="2.768" style="fill:rgb(245,242,235);"/>
        </g>
        <g transform="matrix(1,0,0,1,585.562,234.856)">
            <path d="M0,10.001C0,9.511 -0.102,9.079 -0.305,8.707C-0.507,8.334 -0.795,8.007 -1.167,7.724C-1.54,7.44 -1.983,7.193 -2.497,6.981C-3.011,6.769 -3.569,6.573 -4.173,6.395C-4.984,6.158 -5.783,5.866 -6.57,5.518C-7.358,5.168 -8.061,4.741 -8.679,4.237C-9.296,3.732 -9.796,3.144 -10.178,2.469C-10.56,1.795 -10.751,1.015 -10.751,0.128C-10.751,-0.759 -10.56,-1.553 -10.178,-2.256C-9.796,-2.958 -9.284,-3.555 -8.643,-4.045C-8.002,-4.535 -7.257,-4.913 -6.408,-5.177C-5.56,-5.44 -4.673,-5.573 -3.749,-5.573C-2.759,-5.573 -1.832,-5.419 -0.969,-5.113C-0.106,-4.807 0.648,-4.378 1.294,-3.826C1.939,-3.274 2.451,-2.614 2.829,-1.846C3.206,-1.077 3.399,-0.226 3.409,0.708L0.014,0.708C-0.033,0.189 -0.145,-0.285 -0.318,-0.714C-0.493,-1.143 -0.738,-1.513 -1.054,-1.824C-1.37,-2.136 -1.754,-2.376 -2.207,-2.546C-2.659,-2.716 -3.183,-2.801 -3.777,-2.801C-4.286,-2.801 -4.758,-2.734 -5.191,-2.603C-5.625,-2.47 -6,-2.277 -6.316,-2.022C-6.632,-1.768 -6.88,-1.461 -7.059,-1.103C-7.238,-0.744 -7.327,-0.339 -7.327,0.113C-7.327,0.595 -7.205,1.012 -6.96,1.365C-6.715,1.719 -6.394,2.028 -5.998,2.292C-5.602,2.556 -5.146,2.785 -4.633,2.978C-4.119,3.172 -3.584,3.349 -3.027,3.509C-2.169,3.763 -1.349,4.077 -0.566,4.449C0.217,4.821 0.905,5.27 1.499,5.793C2.093,6.316 2.564,6.922 2.914,7.61C3.263,8.299 3.438,9.087 3.438,9.973C3.438,10.888 3.244,11.694 2.857,12.392C2.471,13.09 1.952,13.674 1.301,14.146C0.65,14.617 -0.104,14.974 -0.962,15.214C-1.82,15.454 -2.716,15.574 -3.649,15.574C-4.281,15.574 -4.908,15.513 -5.531,15.391C-6.153,15.269 -6.75,15.084 -7.32,14.839C-7.892,14.594 -8.422,14.29 -8.912,13.927C-9.402,13.564 -9.829,13.144 -10.192,12.668C-10.555,12.191 -10.841,11.658 -11.048,11.069C-11.255,10.48 -11.364,9.831 -11.373,9.124L-7.964,9.124C-7.917,9.746 -7.78,10.289 -7.554,10.751C-7.327,11.213 -7.025,11.598 -6.648,11.903C-6.271,12.21 -5.83,12.441 -5.326,12.597C-4.821,12.752 -4.263,12.83 -3.649,12.83C-3.141,12.83 -2.664,12.769 -2.221,12.647C-1.778,12.523 -1.392,12.342 -1.062,12.102C-0.731,11.861 -0.472,11.564 -0.283,11.211C-0.095,10.857 0,10.454 0,10.001" style="fill:rgb(77,171,178);fill-rule:nonzero;"/>
        </g>
        <g transform="matrix(1,0,0,1,607.895,229.566)">
            <path d="M0,20.596L-3.423,20.596L-10.128,6.422L-10.143,20.596L-13.579,20.596L-13.579,0L-10.143,0L-3.466,14.131L-3.438,0L0,0L0,20.596Z" style="fill:rgb(77,171,178);fill-rule:nonzero;"/>
        </g>
        <g transform="matrix(1,0,0,1,689.622,241.194)">
            <path d="M0,-2.66C-0.01,-3.432 -0.08,-4.201 -0.212,-4.966C-0.345,-5.729 -0.565,-6.41 -0.877,-7.01C-1.188,-7.608 -1.601,-8.094 -2.115,-8.467C-2.629,-8.839 -3.272,-9.025 -4.046,-9.025C-4.81,-9.025 -5.443,-8.839 -5.948,-8.467C-6.453,-8.094 -6.854,-7.605 -7.15,-7.002C-7.447,-6.398 -7.655,-5.717 -7.773,-4.958C-7.891,-4.199 -7.955,-3.432 -7.964,-2.66L-7.964,0C-7.955,0.774 -7.889,1.539 -7.766,2.298C-7.644,3.058 -7.434,3.741 -7.137,4.35C-6.84,4.958 -6.438,5.45 -5.934,5.827C-5.43,6.205 -4.795,6.394 -4.031,6.394C-3.259,6.394 -2.615,6.205 -2.101,5.827C-1.587,5.45 -1.174,4.96 -0.863,4.357C-0.552,3.753 -0.332,3.069 -0.205,2.306C-0.078,1.541 -0.01,0.774 0,0L0,-2.66ZM3.409,0C3.409,1.216 3.253,2.383 2.942,3.501C2.631,4.618 2.166,5.604 1.549,6.457C0.931,7.311 0.157,7.989 -0.771,8.494C-1.7,8.998 -2.787,9.251 -4.031,9.251C-5.267,9.251 -6.342,8.996 -7.257,8.487C-8.172,7.978 -8.933,7.297 -9.541,6.443C-10.149,5.59 -10.606,4.607 -10.913,3.493C-11.22,2.381 -11.373,1.216 -11.373,0L-11.373,-2.632C-11.373,-3.442 -11.305,-4.234 -11.168,-5.008C-11.031,-5.781 -10.828,-6.51 -10.56,-7.193C-10.291,-7.877 -9.956,-8.509 -9.556,-9.089C-9.154,-9.669 -8.684,-10.166 -8.141,-10.581C-7.599,-10.996 -6.985,-11.321 -6.302,-11.556C-5.618,-11.793 -4.866,-11.911 -4.046,-11.911C-2.801,-11.911 -1.714,-11.656 -0.785,-11.146C0.144,-10.638 0.919,-9.956 1.542,-9.102C2.164,-8.249 2.631,-7.262 2.942,-6.139C3.253,-5.016 3.409,-3.847 3.409,-2.632L3.409,0Z" style="fill:rgb(77,171,178);fill-rule:nonzero;"/>
        </g>
        <g transform="matrix(1,0,0,1,702.167,238.902)">
            <path d="M0,1.924L0,8.487L3.706,8.487C4.243,8.478 4.733,8.396 5.177,8.239C5.62,8.084 6.002,7.87 6.322,7.596C6.643,7.322 6.896,6.988 7.079,6.592C7.264,6.195 7.355,5.753 7.355,5.262C7.355,4.743 7.275,4.279 7.114,3.869C6.954,3.459 6.724,3.112 6.422,2.829C6.12,2.546 5.752,2.327 5.318,2.172C4.885,2.016 4.398,1.934 3.861,1.924L0,1.924ZM0,-0.665L3.253,-0.665C3.763,-0.674 4.236,-0.742 4.675,-0.87C5.113,-0.997 5.492,-1.185 5.813,-1.435C6.134,-1.685 6.389,-1.992 6.577,-2.355C6.766,-2.718 6.86,-3.136 6.86,-3.607C6.86,-4.125 6.771,-4.568 6.592,-4.936C6.412,-5.305 6.16,-5.606 5.835,-5.842C5.509,-6.077 5.125,-6.25 4.682,-6.358C4.238,-6.467 3.753,-6.525 3.225,-6.535L0,-6.535L0,-0.665ZM-3.409,11.26L-3.409,-9.336L3.168,-9.336C4.158,-9.326 5.085,-9.213 5.947,-8.996C6.811,-8.779 7.564,-8.444 8.211,-7.992C8.856,-7.539 9.364,-6.962 9.731,-6.259C10.1,-5.556 10.278,-4.724 10.27,-3.763C10.26,-2.744 9.977,-1.874 9.42,-1.152C8.864,-0.431 8.114,0.127 7.171,0.524C7.746,0.684 8.258,0.912 8.706,1.21C9.154,1.507 9.528,1.862 9.831,2.278C10.132,2.693 10.363,3.153 10.523,3.656C10.684,4.161 10.765,4.696 10.765,5.262C10.765,6.243 10.585,7.106 10.227,7.851C9.868,8.596 9.371,9.218 8.734,9.718C8.098,10.218 7.343,10.598 6.471,10.857C5.599,11.116 4.658,11.25 3.649,11.26L-3.409,11.26Z" style="fill:rgb(77,171,178);fill-rule:nonzero;"/>
        </g>
        <g transform="matrix(1,0,0,1,662.344,288.842)">
            <path d="M0,-22.235C2.074,-21.837 3.645,-20.04 3.734,-17.849C3.759,-17.265 3.897,-16.616 4.305,-15.811C5.72,-13.022 7.548,-13.949 8.962,-11.159C10.376,-8.37 8.548,-7.443 9.962,-4.653C11.377,-1.863 13.205,-2.79 14.619,0" style="fill:rgb(245,242,235);fill-rule:nonzero;"/>
        </g>
        <g transform="matrix(1,0,0,1,676.965,263.894)">
            <path d="M0,27.449C-0.912,27.449 -1.791,26.948 -2.231,26.078C-2.602,25.348 -2.887,25.185 -3.576,24.789C-4.533,24.239 -5.844,23.486 -6.889,21.426C-7.934,19.364 -7.766,17.862 -7.644,16.764C-7.556,15.975 -7.52,15.648 -7.889,14.92C-8.259,14.19 -8.544,14.026 -9.233,13.63C-10.19,13.08 -11.502,12.327 -12.546,10.267C-13.067,9.237 -13.342,8.235 -13.385,7.203C-13.426,6.189 -14.129,5.353 -15.093,5.168C-16.448,4.907 -17.337,3.597 -17.076,2.241C-16.816,0.886 -15.508,0 -14.149,0.258C-10.895,0.883 -8.526,3.654 -8.389,6.996C-8.38,7.205 -8.338,7.51 -8.086,8.008C-7.717,8.735 -7.432,8.898 -6.743,9.295C-5.786,9.845 -4.475,10.597 -3.43,12.658C-2.385,14.719 -2.553,16.221 -2.675,17.318C-2.763,18.108 -2.799,18.435 -2.43,19.165C-2.06,19.893 -1.774,20.057 -1.085,20.454C-0.128,21.004 1.184,21.757 2.228,23.818C2.853,25.05 2.359,26.553 1.128,27.178C0.766,27.361 0.38,27.449 0,27.449" style="fill:rgb(77,171,178);fill-rule:nonzero;"/>
        </g>
        <g transform="matrix(1,0,0,1,643.28,326.221)">
            <path d="M0,-186.592C-7.628,-186.592 -14.729,-183.554 -19.997,-178.037L-71.916,-123.663C-86.85,-108.022 -91.678,-84.952 -84.216,-64.892C-76.225,-43.406 -59.767,-15.463 -26.735,-4.349C-9.495,1.454 9.497,1.453 26.737,-4.35C59.761,-15.464 76.218,-43.409 84.207,-64.896C91.668,-84.955 86.84,-108.023 71.909,-123.661L19.998,-178.036C14.73,-183.553 7.629,-186.592 0,-186.592M0,7.451C-9.863,7.451 -19.725,5.872 -29.112,2.714C-64.927,-9.338 -82.643,-39.29 -91.199,-62.294C-99.648,-85.01 -94.195,-111.117 -77.305,-128.808L-25.386,-183.182C-18.699,-190.186 -9.683,-194.043 0,-194.043L0.001,-194.043C9.685,-194.042 18.7,-190.185 25.387,-183.181L77.298,-128.806C94.185,-111.119 99.639,-85.013 91.191,-62.298C82.636,-39.293 64.922,-9.34 29.114,2.712C19.728,5.872 9.863,7.451 0,7.451" style="fill:rgb(77,171,178);fill-rule:nonzero;"/>
        </g>
        <g transform="matrix(1,0,0,1,634.088,216.072)">
            <path d="M0,12.613C0,12.613 -1.453,19.269 -5.339,25.865C3.269,32.815 9.246,41.925 9.246,41.925C9.246,41.925 15.223,32.815 23.831,25.865C19.944,19.269 18.491,12.613 18.491,12.613C25.388,15.076 36.995,11.171 40.431,2.475C38.786,2.31 37.394,2.171 36.001,2.031C36.001,2.031 45.752,-0.844 48.138,-7.881L44.144,-8.421C53.628,-12.461 58.687,-19.106 59.02,-29.312C59.02,-29.312 34.138,-15.178 26.292,-11.621C23.827,-10.506 21.594,-9.098 19.71,-7.128C18.287,-5.64 15.838,-5.933 14.772,-7.674C14.044,-8.866 13.756,-10.185 13.812,-11.707L19.049,-11.707C18.265,-14.334 17.227,-16.61 15.068,-18.184C13.977,-18.98 12.724,-19.245 11.365,-19.152C8.685,-18.968 6.609,-17.704 5.267,-15.456C3.987,-13.314 2.973,-11.014 1.814,-8.797C1.402,-8.007 0.965,-7.218 0.434,-6.508C0.234,-6.241 -0.009,-6.113 -0.271,-6.179L-1.218,-7.128C-3.102,-9.098 -5.336,-10.506 -7.8,-11.621L0,12.613Z" style="fill:rgb(245,242,235);fill-rule:nonzero;"/>
        </g>
        <g transform="matrix(1,0,0,1,634.088,189.223)">
            <path d="M0,39.462C-6.896,41.925 -18.504,38.02 -21.938,29.324C-20.295,29.159 -18.902,29.02 -17.509,28.88C-17.509,28.88 -27.261,26.005 -29.646,18.968L-25.651,18.428C-35.137,14.388 -40.195,7.743 -40.527,-2.463C-40.527,-2.463 -15.646,11.671 -7.8,15.228C-5.336,16.343 -3.102,17.751 -1.218,19.721L0,39.462Z" style="fill:rgb(245,242,235);fill-rule:nonzero;"/>
        </g>
        <g transform="matrix(0,1,1,0,646.711,236.074)">
            <path d="M2.757,-9.512C5.681,-5.891 9.512,-3.377 9.512,-3.377C9.512,-3.377 5.681,-0.864 2.757,2.757L5.485,-3.377L2.757,-9.512Z" style="fill-rule:nonzero;"/>
        </g>
        <g transform="matrix(0,1,1,0,646.711,229.415)">
            <path d="M2.757,-9.512C5.68,-5.891 9.512,-3.377 9.512,-3.377C9.512,-3.377 5.68,-0.864 2.757,2.757L5.484,-3.377L2.757,-9.512Z" style="fill-rule:nonzero;"/>
        </g>
        <g transform="matrix(1,0,0,1,667.211,266.525)">
            <path d="M0,35.055C0,35.055 0.244,27.309 -4.157,23.37C-4.157,23.37 -3.914,15.623 -8.315,11.685C-8.315,11.685 -8.072,3.939 -12.474,0L-35.398,0C-39.8,3.939 -39.557,11.685 -39.557,11.685C-43.958,15.623 -43.714,23.37 -43.714,23.37C-48.115,27.309 -47.872,35.055 -47.872,35.055L0,35.055Z" style="fill-rule:nonzero;"/>
        </g>
        <g transform="matrix(1,0,0,1,620.765,267.909)">
            <path d="M0,32.287L45.019,32.287C44.865,30.05 44.199,25.553 41.365,23.017L40.887,22.589L40.905,21.944C40.907,21.873 41.065,14.784 37.207,11.332L36.729,10.903L36.747,10.259C36.749,10.19 36.896,3.559 33.417,0L11.602,0C8.104,3.572 8.27,10.188 8.271,10.258L8.292,10.902L7.812,11.332C3.936,14.801 4.111,21.872 4.113,21.943L4.134,22.588L3.653,23.017C0.819,25.553 0.153,30.05 0,32.287M47.786,35.055L-2.768,35.055L-2.81,33.715C-2.82,33.383 -3.006,25.799 1.348,21.393C1.389,19.427 1.826,13.432 5.506,9.708C5.549,7.662 6.021,1.257 10.124,-2.415L10.519,-2.768L34.5,-2.768L34.895,-2.415C38.998,1.257 39.47,7.662 39.513,9.708C43.192,13.432 43.63,19.427 43.671,21.393C48.024,25.799 47.839,33.383 47.828,33.715L47.786,35.055Z" style="fill:rgb(245,242,235);fill-rule:nonzero;"/>
        </g>
        <g transform="matrix(-1,0,0,1,841.273,-73.851)">
            <rect x="178.22" y="362.362" width="39.558" height="2.768" style="fill:rgb(245,242,235);"/>
        </g>
        <g transform="matrix(-1,0,0,1,841.274,-97.221)">
            <rect x="182.379" y="374.047" width="31.241" height="2.768" style="fill:rgb(245,242,235);"/>
        </g>
        <g transform="matrix(1,0,0,1,619.828,260.77)">
            <path d="M0,38.023C-0.466,38.018 -11.41,37.67 -11.41,17.913C-11.41,12.882 -12.71,9.034 -15.273,6.474C-18.5,3.252 -22.983,2.767 -25.385,2.767L-25.41,2.767L-25.414,0L-25.386,0C-22.554,0 -17.249,0.59 -13.318,4.515C-10.216,7.614 -8.643,12.121 -8.643,17.913C-8.643,34.779 -0.31,35.245 0.045,35.255L0,38.023Z" style="fill:rgb(245,242,235);fill-rule:nonzero;"/>
        </g>
    </g>
</svg>
