<?xml version="1.0" encoding="UTF-8" standalone="no"?>
<!DOCTYPE svg PUBLIC "-//W3C//DTD SVG 1.1//EN" "http://www.w3.org/Graphics/SVG/1.1/DTD/svg11.dtd">
<svg width="100%" height="100%" viewBox="0 0 53 53" version="1.1" xmlns="http://www.w3.org/2000/svg" xmlns:xlink="http://www.w3.org/1999/xlink" xml:space="preserve" xmlns:serif="http://www.serif.com/" style="fill-rule:evenodd;clip-rule:evenodd;stroke-miterlimit:10;">
    <g transform="matrix(1,0,0,1,-369.84,-436.168)">
        <g transform="matrix(0.442303,-0.896866,0.896866,0.442303,0,0)">
            <path d="M-238.677,540.107L-238.677,535.056L-236.86,535.056L-236.86,533.59L-242.185,533.59L-242.185,535.056L-240.358,535.056L-240.358,540.107L-238.677,540.107Z" style="fill-rule:nonzero;"/>
        </g>
        <g transform="matrix(0.698613,-0.7155,0.7155,0.698613,0,0)">
            <path d="M-50.644,586.794L-53.096,580.277L-55.216,580.277L-57.669,586.794L-55.764,586.794L-55.441,585.856L-52.871,585.856L-52.549,586.794L-50.644,586.794ZM-53.331,584.391L-54.982,584.391L-54.151,581.938L-53.331,584.391Z" style="fill-rule:nonzero;"/>
        </g>
        <g transform="matrix(0.904816,-0.425803,0.425803,0.904816,0,0)">
            <path d="M164.736,567.406L162.068,563.938L164.599,560.889L162.527,560.889L160.524,563.566L160.524,560.889L158.844,560.889L158.844,567.406L160.524,567.406L160.524,565.501L160.964,564.954L162.674,567.406L164.736,567.406Z" style="fill-rule:nonzero;"/>
        </g>
        <g transform="matrix(0.994399,-0.105691,0.105691,0.994399,0,0)">
            <path d="M347.378,482.064L347.378,480.598L344.281,480.598L344.281,479.494L347.31,479.494L347.31,478.028L344.281,478.028L344.281,477.012L347.378,477.012L347.378,475.546L342.6,475.546L342.6,482.064L347.378,482.064Z" style="fill-rule:nonzero;"/>
        </g>
        <g transform="matrix(0.929717,0.368276,-0.368276,0.929717,0,0)">
            <path d="M539.276,264.463L539.276,259.412L541.094,259.412L541.094,257.946L535.769,257.946L535.769,259.412L537.596,259.412L537.596,264.463L539.276,264.463Z" style="fill-rule:nonzero;"/>
        </g>
        <g transform="matrix(0.745024,0.667038,-0.667038,0.745024,0,0)">
            <path d="M606.457,60.768L606.457,54.25L604.776,54.25L604.776,56.683L602.069,56.683L602.069,54.25L600.389,54.25L600.389,60.768L602.069,60.768L602.069,58.149L604.776,58.149L604.776,60.768L606.457,60.768Z" style="fill-rule:nonzero;"/>
        </g>
        <g transform="matrix(0.469353,0.88301,-0.88301,0.469353,0,0)">
            <path d="M596.621,-152.216L596.621,-153.681L593.524,-153.681L593.524,-154.786L596.553,-154.786L596.553,-156.251L593.524,-156.251L593.524,-157.267L596.621,-157.267L596.621,-158.733L591.843,-158.733L591.843,-152.216L596.621,-152.216Z" style="fill-rule:nonzero;"/>
        </g>
        <g transform="matrix(0.0205611,0.999789,-0.999789,0.0205611,0,0)">
            <path d="M470.798,-360.237C472.371,-360.237 473.221,-361.156 473.641,-361.986L472.195,-362.67C471.98,-362.153 471.423,-361.723 470.798,-361.723C469.733,-361.723 468.981,-362.543 468.981,-363.608C468.981,-364.683 469.733,-365.494 470.798,-365.494C471.423,-365.494 471.98,-365.064 472.195,-364.546L473.641,-365.24C473.221,-366.09 472.371,-366.979 470.798,-366.979C468.795,-366.979 467.271,-365.621 467.271,-363.608C467.271,-361.605 468.795,-360.237 470.798,-360.237Z" style="fill-rule:nonzero;"/>
        </g>
        <g transform="matrix(0.388162,0.921591,-0.921591,0.388162,0,0)">
            <path d="M579.791,-159.306C581.784,-159.306 583.269,-160.694 583.269,-162.677C583.269,-164.661 581.784,-166.048 579.791,-166.048C577.797,-166.048 576.302,-164.661 576.302,-162.677C576.302,-160.694 577.797,-159.306 579.791,-159.306ZM579.791,-160.792C578.716,-160.792 578.012,-161.622 578.012,-162.677C578.012,-163.742 578.716,-164.563 579.791,-164.563C580.865,-164.563 581.559,-163.742 581.559,-162.677C581.559,-161.622 580.865,-160.792 579.791,-160.792Z" style="fill-rule:nonzero;"/>
        </g>
        <g transform="matrix(0.682477,0.730907,-0.730907,0.682477,0,0)">
            <path d="M607.608,52.155L607.608,49.585L610.637,49.585L610.637,48.119L607.608,48.119L607.608,47.103L610.705,47.103L610.705,45.638L605.927,45.638L605.927,52.155L607.608,52.155Z" style="fill-rule:nonzero;"/>
        </g>
        <g transform="matrix(0.87361,0.486626,-0.486626,0.87361,0,0)">
            <path d="M570.385,237.263L570.385,234.694L573.414,234.694L573.414,233.228L570.385,233.228L570.385,232.212L573.482,232.212L573.482,230.746L568.704,230.746L568.704,237.263L570.385,237.263Z" style="fill-rule:nonzero;"/>
        </g>
        <g transform="matrix(0.981539,0.191262,-0.191262,0.981539,0,0)">
            <path d="M479.577,404.127L479.577,402.662L476.479,402.662L476.479,401.558L479.508,401.558L479.508,400.092L476.479,400.092L476.479,399.076L479.577,399.076L479.577,397.61L474.799,397.61L474.799,404.127L479.577,404.127Z" style="fill-rule:nonzero;"/>
        </g>
        <g transform="matrix(0.992794,-0.119835,0.119835,0.992794,0,0)">
            <path d="M340.261,532.524L340.261,531.058L337.163,531.058L337.163,529.954L340.192,529.954L340.192,528.488L337.163,528.488L337.163,527.472L340.261,527.472L340.261,526.006L335.483,526.006L335.483,532.524L340.261,532.524Z" style="fill-rule:nonzero;"/>
        </g>
        <g transform="matrix(0.799035,-0.601285,0.601285,0.799035,0,0)">
            <path d="M38.398,633.711C38.906,633.711 39.385,633.613 39.815,633.447L40.304,634.033L41.466,633.095L41.056,632.597C41.574,632.021 41.877,631.239 41.877,630.34C41.877,628.356 40.392,626.969 38.398,626.969C36.405,626.969 34.91,628.356 34.91,630.34C34.91,632.323 36.405,633.711 38.398,633.711ZM38.398,632.226C37.324,632.226 36.62,631.395 36.62,630.34C36.62,629.275 37.324,628.454 38.398,628.454C39.473,628.454 40.167,629.275 40.167,630.34C40.167,630.682 40.089,630.995 39.962,631.268L39.346,630.526L38.183,631.464L38.779,632.187C38.652,632.216 38.525,632.226 38.398,632.226Z" style="fill-rule:nonzero;"/>
        </g>
        <g transform="matrix(0.513452,-0.858118,0.858118,0.513452,0,0)">
            <path d="M-193.329,603.382C-191.238,603.382 -190.261,602.239 -190.261,600.617L-190.261,596.747L-191.962,596.747L-191.962,600.568C-191.962,601.34 -192.431,601.897 -193.329,601.897C-194.238,601.897 -194.707,601.34 -194.707,600.568L-194.707,596.747L-196.417,596.747L-196.417,600.627C-196.417,602.229 -195.42,603.382 -193.329,603.382Z" style="fill-rule:nonzero;"/>
        </g>
        <g transform="matrix(0.252146,-0.967689,0.967689,0.252146,0,0)">
            <rect x="-348.413" y="519.327" width="1.681" height="6.517" style="fill-rule:nonzero;"/>
        </g>
        <g transform="matrix(0.0162114,-0.999869,0.999869,0.0162114,0,0)">
            <path d="M-452.951,429.495L-452.951,428.03L-455.804,428.03L-453.019,424.307L-453.019,422.978L-458.012,422.978L-458.012,424.444L-455.237,424.444L-458.012,428.157L-458.012,429.495L-452.951,429.495Z" style="fill-rule:nonzero;"/>
        </g>
        <g transform="matrix(1,0,0,1,404.619,462.342)">
            <path d="M0,0C0,4.76 -3.858,8.619 -8.619,8.619C-13.379,8.619 -17.237,4.76 -17.237,0C-17.237,-4.76 -13.379,-8.619 -8.619,-8.619C-3.858,-8.619 0,-4.76 0,0" style="fill-rule:nonzero;"/>
        </g>
        <g transform="matrix(0,-1,-1,0,401.217,461.784)">
            <path d="M-5.218,5.218L5.218,5.218" style="fill:none;stroke:white;stroke-width:1px;"/>
        </g>
        <g transform="matrix(1,0,0,1,400.748,467.224)">
            <path d="M0,-5.127L-4.748,0L-9.496,-5.127" style="fill:none;stroke:white;stroke-width:1px;"/>
        </g>
    </g>
</svg>
