<?xml version="1.0" encoding="UTF-8" standalone="no"?><!DOCTYPE svg PUBLIC "-//W3C//DTD SVG 1.1//EN" "http://www.w3.org/Graphics/SVG/1.1/DTD/svg11.dtd"><svg width="100%" height="100%" viewBox="0 0 6 5" version="1.1" xmlns="http://www.w3.org/2000/svg" xmlns:xlink="http://www.w3.org/1999/xlink" xml:space="preserve" xmlns:serif="http://www.serif.com/" style="fill-rule:evenodd;clip-rule:evenodd;stroke-linejoin:round;stroke-miterlimit:1.41421;"><path d="M4.164,3.365c0,-0.113 0.091,-0.204 0.204,-0.204c0.113,0 0.204,0.091 0.204,0.204c0,0.113 -0.091,0.204 -0.204,0.204c-0.113,0 -0.204,-0.091 -0.204,-0.204Zm-0.535,0.204c-0.113,0 -0.204,-0.091 -0.204,-0.204c0,-0.113 0.091,-0.204 0.204,-0.204c0.113,0 0.204,0.091 0.204,0.204c0,0.113 -0.091,0.204 -0.204,0.204Zm-0.739,0c-0.111,0 -0.204,-0.091 -0.204,-0.204c0,-0.113 0.093,-0.204 0.204,-0.204c0.112,0 0.204,0.091 0.204,0.204c0,0.113 -0.092,0.204 -0.204,0.204Zm2.169,-0.156c0,-0.653 -0.641,-1.183 -1.43,-1.183c-0.787,0 -1.431,0.53 -1.431,1.183c0,0.653 0.644,1.183 1.431,1.183c0.141,0 0.281,-0.017 0.415,-0.05l0.022,-0.008l0.016,0.017c0.084,0.084 0.238,0.209 0.411,0.226c-0.06,-0.06 -0.135,-0.161 -0.161,-0.303l-0.005,-0.033l0.029,-0.012c0.434,-0.214 0.703,-0.605 0.703,-1.02Z" style="fill:#030404;fill-rule:nonzero;"/><path d="M1.812,3.413c0,-0.867 0.816,-1.57 1.817,-1.57c0.343,0 0.662,0.084 0.936,0.228c0.007,-0.055 0.012,-0.11 0.012,-0.168c0,-1.051 -1.025,-1.903 -2.29,-1.903c-1.262,0 -2.287,0.852 -2.287,1.903c0,0.701 0.454,1.313 1.13,1.644c-0.064,0.372 -0.362,0.543 -0.362,0.543c0.367,0.064 0.696,-0.197 0.862,-0.363c0.076,0.019 0.153,0.034 0.232,0.046c-0.031,-0.115 -0.05,-0.235 -0.05,-0.36Z" style="fill:#030404;fill-rule:nonzero;"/></svg>