<?xml version="1.0" encoding="UTF-8" standalone="no"?>
<!DOCTYPE svg PUBLIC "-//W3C//DTD SVG 1.1//EN" "http://www.w3.org/Graphics/SVG/1.1/DTD/svg11.dtd">
<svg width="100%" height="100%" viewBox="0 0 5 5" version="1.1" xmlns="http://www.w3.org/2000/svg" xmlns:xlink="http://www.w3.org/1999/xlink" xml:space="preserve" xmlns:serif="http://www.serif.com/" style="fill-rule:evenodd;clip-rule:evenodd;stroke-linejoin:round;stroke-miterlimit:1.41421;">
    <g transform="matrix(0.24,0,0,0.24,-150.321,-75.8048)">
        <g transform="matrix(1,0,0,1,647.15,333.068)">
            <path d="M0,-15.169C-0.672,-14.901 -1.39,-14.714 -2.115,-14.604C-1.428,-15.223 -0.862,-15.99 -0.484,-16.825C-1.227,-16.301 -2.101,-15.971 -3.002,-15.858C-3.813,-16.694 -4.945,-17.215 -6.201,-17.215C-8.663,-17.215 -10.659,-15.219 -10.659,-12.757C-10.659,-12.51 -10.634,-12.27 -10.596,-12.033C-14.145,-11.927 -17.711,-13.714 -19.713,-16.653C-20.139,-15.675 -20.191,-14.625 -19.963,-13.583C-19.735,-12.542 -19.172,-11.576 -18.378,-10.865C-19.068,-10.89 -19.768,-11.117 -20.33,-11.521C-20.274,-10.46 -19.926,-9.382 -19.257,-8.558C-18.587,-7.733 -17.651,-7.128 -16.625,-6.856C-17.406,-6.669 -18.203,-6.581 -18.999,-6.693C-17.984,-5.242 -16.407,-4.201 -14.683,-3.8C-15.862,-2.24 -18.964,-1.822 -20.811,-2.031C-16.106,2.046 -1.742,0.233 -1.742,-12.757C-1.742,-12.906 -1.75,-13.055 -1.765,-13.201C-1.112,-13.795 -0.519,-14.454 0,-15.169" style="fill-rule:nonzero;"/>
        </g>
    </g>
</svg>
