<?xml version="1.0" encoding="UTF-8" standalone="no"?>
<!DOCTYPE svg PUBLIC "-//W3C//DTD SVG 1.1//EN" "http://www.w3.org/Graphics/SVG/1.1/DTD/svg11.dtd">
<svg width="100%" height="100%" viewBox="0 0 45 45" version="1.1" xmlns="http://www.w3.org/2000/svg" xmlns:xlink="http://www.w3.org/1999/xlink" xml:space="preserve" xmlns:serif="http://www.serif.com/" style="fill-rule:evenodd;clip-rule:evenodd;stroke-linejoin:round;stroke-miterlimit:1.41421;">
    <g transform="matrix(0.24,0,0,0.24,-25.3637,-33.7479)">
        <g transform="matrix(1,0,0,1,286.282,232.934)">
            <path d="M0,0C0,48.757 -39.525,88.282 -88.282,88.282C-137.039,88.282 -176.564,48.757 -176.564,0C-176.564,-48.757 -137.039,-88.282 -88.282,-88.282C-39.525,-88.282 0,-48.757 0,0" style="fill-rule:nonzero;"/>
        </g>
        <g transform="matrix(1,0,0,1,198,317.181)">
            <path d="M0,-168.494C-46.454,-168.494 -84.247,-130.701 -84.247,-84.247C-84.247,-37.793 -46.454,0 0,0C46.454,0 84.247,-37.793 84.247,-84.247C84.247,-130.701 46.454,-168.494 0,-168.494M0,8.071C-50.904,8.071 -92.318,-33.343 -92.318,-84.247C-92.318,-135.151 -50.904,-176.565 0,-176.565C50.904,-176.565 92.318,-135.151 92.318,-84.247C92.318,-33.343 50.904,8.071 0,8.071" style="fill:rgb(77,171,178);fill-rule:nonzero;"/>
        </g>
        <g transform="matrix(1,0,0,1,222.149,224.938)">
            <path d="M0,6.365C-2.084,6.365 -3.183,5.083 -3.908,4.235C-4.591,3.438 -4.822,3.236 -5.359,3.236C-5.896,3.236 -6.129,3.438 -6.812,4.235C-7.538,5.084 -8.636,6.365 -10.72,6.365C-12.804,6.365 -13.9,5.083 -14.627,4.234C-15.309,3.438 -15.54,3.236 -16.075,3.236C-16.609,3.236 -16.841,3.438 -17.521,4.234C-18.247,5.083 -19.344,6.365 -21.427,6.365C-23.511,6.365 -24.608,5.083 -25.334,4.234C-26.016,3.438 -26.246,3.236 -26.781,3.236C-27.316,3.236 -27.547,3.438 -28.229,4.234C-28.954,5.083 -30.051,6.365 -32.135,6.365C-34.218,6.365 -35.314,5.083 -36.04,4.234C-36.722,3.438 -36.952,3.236 -37.487,3.236C-38.022,3.236 -38.253,3.438 -38.935,4.234C-39.66,5.083 -40.757,6.365 -42.84,6.365C-44.923,6.365 -46.02,5.083 -46.745,4.234C-47.426,3.438 -47.656,3.236 -48.19,3.236C-48.726,3.236 -48.957,3.438 -49.639,4.234C-50.364,5.083 -51.462,6.365 -53.545,6.365L-53.545,3.129C-53.01,3.129 -52.779,2.927 -52.098,2.131C-51.372,1.282 -50.274,0 -48.19,0C-46.107,0 -45.012,1.282 -44.286,2.131C-43.605,2.927 -43.374,3.129 -42.84,3.129C-42.306,3.129 -42.074,2.927 -41.394,2.131C-40.668,1.282 -39.571,0 -37.487,0C-35.403,0 -34.307,1.282 -33.581,2.131C-32.9,2.927 -32.669,3.129 -32.135,3.129C-31.6,3.129 -31.369,2.927 -30.687,2.131C-29.962,1.282 -28.865,0 -26.781,0C-24.698,0 -23.601,1.282 -22.875,2.131C-22.193,2.927 -21.962,3.129 -21.427,3.129C-20.893,3.129 -20.661,2.927 -19.98,2.131C-19.255,1.282 -18.158,0 -16.075,0C-13.991,0 -12.895,1.282 -12.168,2.131C-11.486,2.927 -11.255,3.129 -10.72,3.129C-10.183,3.129 -9.951,2.927 -9.269,2.13C-8.542,1.282 -7.444,0 -5.359,0C-3.275,0 -2.177,1.282 -1.451,2.13C-0.769,2.927 -0.537,3.129 0,3.129L0,6.365Z" style="fill:rgb(245,241,234);fill-rule:nonzero;"/>
        </g>
        <g transform="matrix(1,0,0,1,218.615,254.169)">
            <path d="M0,-41.373C2.575,-34.874 7.115,-22.435 7.809,-5.653C12.707,-9.426 18.716,-15.009 18.716,-17.919C18.716,-22.473 12.25,-36.682 9.406,-41.373L0,-41.373ZM-50.835,0L5.01,0C5.262,-20.123 -0.448,-34.758 -3.102,-41.373L-48.086,-41.373L-44.783,-39.336C-44.198,-38.976 -43.949,-38.251 -44.189,-37.606C-48.824,-25.196 -51.002,-12.879 -50.835,0M6.423,2.881L-52.247,2.881C-53.027,2.881 -53.666,2.259 -53.687,1.478C-54.036,-11.9 -51.944,-24.666 -47.297,-37.503L-53.921,-41.588C-54.469,-41.926 -54.727,-42.587 -54.551,-43.206C-54.375,-43.826 -53.81,-44.254 -53.165,-44.254L10.199,-44.254C10.681,-44.254 11.131,-44.013 11.397,-43.612C13.529,-40.414 21.597,-23.891 21.597,-17.919C21.597,-12.492 11.231,-4.54 7.896,-2.121C7.904,-0.941 7.895,0.26 7.862,1.478C7.842,2.259 7.203,2.881 6.423,2.881" style="fill:rgb(245,241,234);fill-rule:nonzero;"/>
        </g>
        <g transform="matrix(-1,0,0,1,412.21,-181.266)">
            <rect x="203.29" y="416.013" width="5.63" height="2.881" style="fill:rgb(245,241,234);"/>
        </g>
        <g transform="matrix(-1,0,0,1,412.21,-168.696)">
            <rect x="203.29" y="409.728" width="5.63" height="2.881" style="fill:rgb(245,241,234);"/>
        </g>
        <g transform="matrix(-1,0,0,1,412.21,-156.128)">
            <rect x="203.29" y="403.444" width="5.63" height="2.881" style="fill:rgb(245,241,234);"/>
        </g>
        <g transform="matrix(1,0,0,1,134.154,208.681)">
            <path d="M0,4.849L-5.897,6.476L-5.257,4.469L-1.28,3.471L-3.953,0.38L-3.313,-1.627L0.562,3.089L3.943,4.168L3.383,5.928L0,4.849Z" style="fill:rgb(245,241,234);fill-rule:nonzero;"/>
        </g>
        <g transform="matrix(1,0,0,1,135.894,202.567)">
            <path d="M0,-2.667C-0.752,-1.256 -0.157,0.226 1.277,0.991C2.7,1.749 4.273,1.424 5.026,0.013C5.779,-1.398 5.179,-2.897 3.756,-3.656C2.321,-4.421 0.753,-4.078 0,-2.667M-1.445,-3.438C-0.209,-5.756 2.343,-6.562 4.648,-5.332C6.955,-4.102 7.708,-1.534 6.472,0.784C5.242,3.09 2.69,3.895 0.384,2.666C-1.922,1.437 -2.675,-1.132 -1.445,-3.438" style="fill:rgb(245,241,234);fill-rule:nonzero;"/>
        </g>
        <g transform="matrix(1,0,0,1,139.934,189.072)">
            <path d="M0,1.399L1.187,-0.049L5.168,3.213C6.104,3.98 7.192,3.964 8.041,2.928C8.89,1.893 8.683,0.833 7.747,0.066L3.766,-3.197L4.96,-4.655L8.982,-1.359C10.651,0.008 10.98,1.925 9.308,3.966C7.635,6.008 5.682,6.054 4.032,4.703L0,1.399Z" style="fill:rgb(245,241,234);fill-rule:nonzero;"/>
        </g>
        <g transform="matrix(1,0,0,1,153.086,184.213)">
            <path d="M0,-5.241L-1.48,-3.991L0.03,-2.203L1.51,-3.453C2.076,-3.931 2.218,-4.63 1.748,-5.186C1.278,-5.743 0.565,-5.72 0,-5.241M2.112,-1.834L1.079,-0.961L3.068,1.393L1.657,2.585L-3.94,-4.041L-0.841,-6.659C0.54,-7.826 2.147,-7.635 3.188,-6.403C4.179,-5.231 3.973,-3.984 3.4,-3.211L7.021,-1.947L5.402,-0.579L2.112,-1.834Z" style="fill:rgb(245,241,234);fill-rule:nonzero;"/>
        </g>
        <g transform="matrix(1,0,0,1,169.594,171.053)">
            <path d="M0,1.998L2.466,0.887L-0.3,-1.96L0,1.998ZM3.596,2.161L0.205,3.688L0.311,5.252L-1.61,6.117L-2.113,-3.168L-0.003,-4.119L6.606,2.417L4.686,3.281L3.596,2.161Z" style="fill:rgb(245,241,234);fill-rule:nonzero;"/>
        </g>
        <g transform="matrix(1,0,0,1,176.012,169.781)">
            <path d="M0,-5.389L2.042,-5.904L6.001,-0.025L6.692,-7.075L8.734,-7.588L7.612,1.633L5.368,2.199L0,-5.389Z" style="fill:rgb(245,241,234);fill-rule:nonzero;"/>
        </g>
        <g transform="matrix(1,0,0,1,189.763,169.718)">
            <path d="M0,-8.205L6.122,-8.651L6.24,-7.03L1.96,-6.718L2.094,-4.889L6.283,-5.194L6.401,-3.573L2.212,-3.268L2.354,-1.309L6.635,-1.621L6.753,0L0.632,0.446L0,-8.205Z" style="fill:rgb(245,241,234);fill-rule:nonzero;"/>
        </g>
        <g transform="matrix(1,0,0,1,205.13,168.435)">
            <path d="M0,-5.344L-1.928,-5.527L-2.148,-3.197L-0.22,-3.015C0.518,-2.946 1.115,-3.333 1.184,-4.058C1.252,-4.782 0.737,-5.275 0,-5.344M-0.955,-1.452L-2.301,-1.579L-2.59,1.487L-4.428,1.313L-3.613,-7.317L0.424,-6.936C2.223,-6.767 3.211,-5.486 3.061,-3.88C2.916,-2.354 1.882,-1.629 0.93,-1.497L2.561,1.973L0.451,1.774L-0.955,-1.452Z" style="fill:rgb(245,241,234);fill-rule:nonzero;"/>
        </g>
        <g transform="matrix(1,0,0,1,214.688,168.04)">
            <path d="M0,0.752L2.603,1.484L2.313,-2.473L0,0.752ZM2.65,3.187L-0.928,2.178L-1.852,3.444L-3.879,2.873L1.7,-4.563L3.928,-3.935L4.792,5.315L2.765,4.745L2.65,3.187Z" style="fill:rgb(245,241,234);fill-rule:nonzero;"/>
        </g>
        <g transform="matrix(1,0,0,1,230.009,176.1)">
            <path d="M0,-7.644C1.623,-6.848 2.238,-5.534 2.369,-4.326L0.626,-4.253C0.545,-4.974 0.108,-5.767 -0.721,-6.173C-2.133,-6.866 -3.692,-6.284 -4.413,-4.813C-5.135,-3.342 -4.64,-1.752 -3.227,-1.06C-2.538,-0.723 -1.735,-0.706 -1.277,-0.843L-0.819,-1.777L-2.874,-2.784L-2.165,-4.232L1.548,-2.412L0.083,0.577C-1.146,1.075 -2.541,1.115 -3.953,0.422C-6.229,-0.694 -7.319,-3.197 -6.117,-5.648C-4.91,-8.111 -2.275,-8.759 0,-7.644" style="fill:rgb(245,241,234);fill-rule:nonzero;"/>
        </g>
        <g transform="matrix(1,0,0,1,238.146,183.915)">
            <path d="M0,-10.619L4.941,-6.981L3.978,-5.673L0.523,-8.216L-0.562,-6.74L2.818,-4.251L1.854,-2.942L-1.526,-5.432L-2.689,-3.851L0.765,-1.308L-0.198,0L-5.14,-3.637L0,-10.619Z" style="fill:rgb(245,241,234);fill-rule:nonzero;"/>
        </g>
        <g transform="matrix(1,0,0,1,247.107,192.225)">
            <path d="M0,-2.337C-0.038,-1.869 0.011,-1.338 0.389,-0.875C0.907,-0.24 1.667,-0.173 2.321,-0.707L6.813,-4.376L7.981,-2.945L3.47,0.739C1.878,2.039 0.337,1.652 -0.79,0.272C-1.341,-0.402 -1.686,-1.195 -1.607,-2.065L0,-2.337Z" style="fill:rgb(245,241,234);fill-rule:nonzero;"/>
        </g>
        <g transform="matrix(1,0,0,1,259.284,201.211)">
            <path d="M0,-2.812C-0.787,-4.205 -2.356,-4.499 -3.771,-3.699C-5.175,-2.906 -5.746,-1.405 -4.959,-0.012C-4.173,1.381 -2.586,1.679 -1.182,0.886C0.233,0.087 0.786,-1.419 0,-2.812M1.426,-3.618C2.718,-1.331 2.027,1.254 -0.249,2.54C-2.524,3.825 -5.095,3.081 -6.386,0.793C-7.671,-1.482 -6.98,-4.067 -4.705,-5.352C-2.429,-6.637 0.142,-5.893 1.426,-3.618" style="fill:rgb(245,241,234);fill-rule:nonzero;"/>
        </g>
        <g transform="matrix(1,0,0,1,264.996,215.436)">
            <path d="M0,-8.624L1.995,-2.818L0.457,-2.29L-0.937,-6.349L-2.672,-5.753L-1.307,-1.78L-2.844,-1.252L-4.209,-5.225L-6.066,-4.587L-4.671,-0.528L-6.208,0L-8.203,-5.805L0,-8.624Z" style="fill:rgb(245,241,234);fill-rule:nonzero;"/>
        </g>
        <g transform="matrix(1,0,0,1,130.267,257.883)">
            <path d="M0,-7.762C2.54,-8.563 4.88,-7.189 5.661,-4.711C6.235,-2.89 5.576,-1.524 4.731,-0.617L3.512,-1.895C4.071,-2.452 4.369,-3.364 4.1,-4.219C3.627,-5.718 2.132,-6.445 0.57,-5.952C-0.991,-5.46 -1.8,-4.007 -1.327,-2.508C-1.058,-1.653 -0.303,-1.074 0.488,-0.942L0.234,0.801C-0.982,0.53 -2.313,-0.195 -2.888,-2.016C-3.669,-4.493 -2.54,-6.961 0,-7.762" style="fill:rgb(245,241,234);fill-rule:nonzero;"/>
        </g>
        <g transform="matrix(1,0,0,1,138.946,267.083)">
            <path d="M0,-2.691C-0.752,-4.102 -2.314,-4.434 -3.748,-3.669C-5.171,-2.911 -5.778,-1.422 -5.025,-0.011C-4.272,1.4 -2.693,1.737 -1.271,0.978C0.164,0.213 0.753,-1.28 0,-2.691M1.446,-3.462C2.683,-1.144 1.93,1.423 -0.377,2.654C-2.684,3.883 -5.235,3.078 -6.472,0.76C-7.701,-1.546 -6.948,-4.115 -4.642,-5.344C-2.335,-6.574 0.217,-5.768 1.446,-3.462" style="fill:rgb(245,241,234);fill-rule:nonzero;"/>
        </g>
        <g transform="matrix(1,0,0,1,144.657,278.781)">
            <path d="M0,-7.895L3.773,-3.055L2.492,-2.056L-0.146,-5.44L-1.592,-4.312L0.99,-1L-0.291,0L-2.874,-3.313L-5.704,-1.106L-6.84,-2.562L0,-7.895Z" style="fill:rgb(245,241,234);fill-rule:nonzero;"/>
        </g>
        <g transform="matrix(1,0,0,1,151.104,286.455)">
            <path d="M0,-7.843L4.465,-3.637L3.352,-2.454L0.229,-5.396L-1.027,-4.062L2.028,-1.183L0.915,0L-2.141,-2.879L-4.601,-0.268L-5.944,-1.533L0,-7.843Z" style="fill:rgb(245,241,234);fill-rule:nonzero;"/>
        </g>
        <g transform="matrix(1,0,0,1,158.66,295.888)">
            <path d="M0,-10.627L5.063,-7.155L4.145,-5.815L0.604,-8.241L-0.433,-6.729L3.032,-4.354L2.112,-3.013L-1.353,-5.388L-2.463,-3.769L1.077,-1.341L0.158,0L-4.905,-3.472L0,-10.627Z" style="fill:rgb(245,241,234);fill-rule:nonzero;"/>
        </g>
        <g transform="matrix(1,0,0,1,167.269,301.223)">
            <path d="M0,-10.463L5.539,-7.827L4.841,-6.36L0.969,-8.203L0.181,-6.549L3.972,-4.745L3.273,-3.278L-0.517,-5.082L-1.36,-3.31L2.512,-1.467L1.813,0L-3.725,-2.637L0,-10.463Z" style="fill:rgb(245,241,234);fill-rule:nonzero;"/>
        </g>
        <g transform="matrix(1,0,0,1,182.496,306.456)">
            <path d="M0,-9.854L1.844,-9.522L0.931,-4.453C0.717,-3.262 1.261,-2.319 2.579,-2.082C3.897,-1.844 4.724,-2.542 4.938,-3.732L5.851,-8.801L7.707,-8.467L6.785,-3.346C6.402,-1.221 4.888,0 2.289,-0.468C-0.31,-0.936 -1.302,-2.621 -0.924,-4.72L0,-9.854Z" style="fill:rgb(245,241,234);fill-rule:nonzero;"/>
        </g>
        <g transform="matrix(1,0,0,1,196.565,305.351)">
            <path d="M0,-5.409L-2.535,-5.451L-2.508,-7.076L4.408,-6.963L4.382,-5.338L1.859,-5.379L1.743,1.667L-0.115,1.637L0,-5.409Z" style="fill:rgb(245,241,234);fill-rule:nonzero;"/>
        </g>
        <g transform="matrix(0.993191,-0.116495,-0.116495,-0.993191,204.307,298.19)">
            <rect x="0.496" y="-8.533" width="1.848" height="8.67" style="fill:rgb(245,241,234);"/>
        </g>
        <g transform="matrix(1,0,0,1,211.023,305.081)">
            <path d="M0,-7.992L1.794,-8.428L3.456,-1.579L7.02,-2.444L7.402,-0.865L2.046,0.436L0,-7.992Z" style="fill:rgb(245,241,234);fill-rule:nonzero;"/>
        </g>
        <g transform="matrix(0.936151,-0.351598,-0.351598,-0.936151,219.029,295.566)">
            <rect x="1.465" y="-8.066" width="1.851" height="8.668" style="fill:rgb(245,241,234);"/>
        </g>
        <g transform="matrix(1,0,0,1,228.551,295.356)">
            <path d="M0,-2.741L-2.24,-1.554L-3.001,-2.99L3.111,-6.228L3.872,-4.793L1.644,-3.611L4.943,2.616L3.3,3.487L0,-2.741Z" style="fill:rgb(245,241,234);fill-rule:nonzero;"/>
        </g>
        <g transform="matrix(1,0,0,1,239.34,289.049)">
            <path d="M0,1.603L2.168,-0.016L-1.149,-2.198L0,1.603ZM3.547,0.983L0.566,3.208L1.008,4.713L-0.68,5.974L-3.182,-2.985L-1.327,-4.371L6.542,0.581L4.854,1.841L3.547,0.983Z" style="fill:rgb(245,241,234);fill-rule:nonzero;"/>
        </g>
        <g transform="matrix(1,0,0,1,246.958,283.681)">
            <path d="M0,-4.964L-1.332,-3.559L0.365,-1.949L1.697,-3.355C2.207,-3.892 2.271,-4.602 1.743,-5.103C1.215,-5.603 0.51,-5.501 0,-4.964M2.474,-1.813L1.544,-0.832L3.779,1.288L2.509,2.627L-3.78,-3.338L-0.991,-6.279C0.252,-7.591 1.87,-7.578 3.039,-6.47C4.152,-5.414 4.085,-4.153 3.602,-3.322L7.338,-2.466L5.88,-0.929L2.474,-1.813Z" style="fill:rgb(245,241,234);fill-rule:nonzero;"/>
        </g>
        <g transform="matrix(0.586914,-0.809649,-0.809649,-0.586914,250.671,276.038)">
            <rect x="3.129" y="-6.134" width="1.847" height="8.672" style="fill:rgb(245,241,234);"/>
        </g>
        <g transform="matrix(1,0,0,1,260.008,266.933)">
            <path d="M0,0.598L1.276,-1.785L-2.65,-2.354L0,0.598ZM2.947,-1.465L1.193,1.812L2.23,2.987L1.237,4.843L-4.824,-2.205L-3.732,-4.245L5.487,-3.098L4.494,-1.242L2.947,-1.465Z" style="fill:rgb(245,241,234);fill-rule:nonzero;"/>
        </g>
        <g transform="matrix(1,0,0,1,262.551,252.702)">
            <path d="M0,3.068L5.383,4.794L4.819,6.551L-3.435,3.905L-2.855,2.098L3.556,-0.064L-1.63,-1.726L-1.066,-3.483L7.187,-0.836L6.645,0.859L0,3.068Z" style="fill:rgb(245,241,234);fill-rule:nonzero;"/>
        </g>
        <g transform="matrix(1,0,0,1,193.229,193.524)">
            <path d="M0,-1.336L-4.096,1.714C-3.99,3.39 -3.308,4.227 -2.048,4.227C-0.683,4.227 0,3.228 0,1.23L0,-1.336ZM-4.113,0.061L-0.018,-2.988C-0.064,-3.861 -0.257,-4.507 -0.594,-4.926C-0.931,-5.345 -1.421,-5.555 -2.065,-5.555C-2.751,-5.555 -3.264,-5.312 -3.604,-4.825C-3.943,-4.339 -4.113,-3.592 -4.113,-2.584L-4.113,0.061ZM2.109,0.861C2.109,1.687 2.014,2.416 1.824,3.045C1.633,3.676 1.359,4.203 1.002,4.627C0.645,5.053 0.208,5.373 -0.308,5.59C-0.823,5.807 -1.403,5.915 -2.048,5.915C-2.687,5.915 -3.264,5.807 -3.779,5.59C-4.295,5.373 -4.732,5.053 -5.094,4.627C-5.453,4.203 -5.732,3.676 -5.928,3.045C-6.125,2.416 -6.223,1.687 -6.223,0.861L-6.223,-2.197C-6.223,-3.023 -6.126,-3.751 -5.933,-4.381C-5.739,-5.011 -5.463,-5.538 -5.102,-5.963C-4.742,-6.388 -4.306,-6.709 -3.793,-6.926C-3.28,-7.143 -2.704,-7.251 -2.065,-7.251C-1.421,-7.251 -0.841,-7.143 -0.325,-6.926C0.19,-6.709 0.629,-6.388 0.988,-5.963C1.35,-5.538 1.626,-5.011 1.819,-4.381C2.013,-3.751 2.109,-3.023 2.109,-2.197L2.109,0.861Z" style="fill:rgb(77,171,178);fill-rule:nonzero;"/>
        </g>
        <g transform="matrix(1,0,0,1,201.552,193.805)">
            <path d="M0,-1.898L1.257,-1.898C1.626,-1.898 1.948,-1.947 2.224,-2.043C2.499,-2.14 2.728,-2.276 2.909,-2.452C3.091,-2.627 3.227,-2.836 3.318,-3.08C3.408,-3.323 3.454,-3.591 3.454,-3.884C3.454,-4.505 3.291,-4.984 2.967,-5.322C2.641,-5.658 2.15,-5.827 1.494,-5.827C1.207,-5.827 0.941,-5.784 0.699,-5.699C0.455,-5.614 0.244,-5.493 0.066,-5.335C-0.113,-5.176 -0.252,-4.986 -0.352,-4.763C-0.451,-4.541 -0.501,-4.289 -0.501,-4.007L-2.602,-4.007C-2.602,-4.511 -2.5,-4.977 -2.299,-5.405C-2.096,-5.833 -1.814,-6.203 -1.455,-6.517C-1.094,-6.83 -0.665,-7.076 -0.167,-7.255C0.331,-7.433 0.876,-7.523 1.468,-7.523C2.071,-7.523 2.625,-7.445 3.129,-7.291C3.633,-7.134 4.063,-6.905 4.421,-6.6C4.778,-6.295 5.057,-5.916 5.256,-5.462C5.455,-5.007 5.555,-4.482 5.555,-3.884C5.555,-3.632 5.517,-3.375 5.44,-3.111C5.364,-2.847 5.248,-2.592 5.094,-2.346C4.937,-2.1 4.742,-1.87 4.504,-1.656C4.268,-1.442 3.987,-1.262 3.665,-1.116C4.052,-0.981 4.377,-0.808 4.641,-0.597C4.904,-0.386 5.118,-0.15 5.282,0.11C5.446,0.372 5.563,0.651 5.634,0.95C5.704,1.248 5.739,1.553 5.739,1.864C5.739,2.461 5.631,2.995 5.414,3.463C5.197,3.932 4.896,4.327 4.514,4.645C4.129,4.965 3.677,5.207 3.155,5.375C2.634,5.541 2.071,5.625 1.468,5.625C0.911,5.625 0.381,5.549 -0.123,5.397C-0.627,5.245 -1.071,5.018 -1.455,4.715C-1.839,4.414 -2.145,4.039 -2.373,3.59C-2.602,3.143 -2.716,2.623 -2.716,2.031L-0.615,2.031C-0.615,2.312 -0.565,2.571 -0.466,2.809C-0.366,3.045 -0.225,3.248 -0.039,3.414C0.145,3.582 0.366,3.712 0.624,3.806C0.882,3.9 1.172,3.947 1.494,3.947C2.162,3.947 2.688,3.77 3.072,3.414C3.455,3.061 3.647,2.546 3.647,1.873C3.647,1.503 3.592,1.186 3.48,0.918C3.369,0.653 3.209,0.433 3.002,0.26C2.793,0.087 2.543,-0.041 2.25,-0.123C1.957,-0.205 1.626,-0.246 1.257,-0.246L0,-0.246L0,-1.898Z" style="fill:rgb(77,171,178);fill-rule:nonzero;"/>
        </g>
        <g transform="matrix(1,0,0,1,193.229,273.964)">
            <path d="M0,-1.336L-4.096,1.714C-3.99,3.39 -3.308,4.227 -2.048,4.227C-0.683,4.227 0,3.228 0,1.23L0,-1.336ZM-4.113,0.061L-0.018,-2.988C-0.064,-3.861 -0.257,-4.507 -0.594,-4.926C-0.931,-5.345 -1.421,-5.555 -2.065,-5.555C-2.751,-5.555 -3.264,-5.312 -3.604,-4.825C-3.943,-4.339 -4.113,-3.592 -4.113,-2.584L-4.113,0.061ZM2.109,0.861C2.109,1.687 2.014,2.416 1.824,3.045C1.633,3.676 1.359,4.203 1.002,4.627C0.645,5.053 0.208,5.373 -0.308,5.59C-0.823,5.807 -1.403,5.915 -2.048,5.915C-2.687,5.915 -3.264,5.807 -3.779,5.59C-4.295,5.373 -4.732,5.053 -5.094,4.627C-5.453,4.203 -5.732,3.676 -5.928,3.045C-6.125,2.416 -6.223,1.687 -6.223,0.861L-6.223,-2.197C-6.223,-3.023 -6.126,-3.751 -5.933,-4.381C-5.739,-5.011 -5.463,-5.538 -5.102,-5.963C-4.742,-6.388 -4.306,-6.709 -3.793,-6.926C-3.28,-7.143 -2.704,-7.251 -2.065,-7.251C-1.421,-7.251 -0.841,-7.143 -0.325,-6.926C0.19,-6.709 0.629,-6.388 0.988,-5.963C1.35,-5.538 1.626,-5.011 1.819,-4.381C2.013,-3.751 2.109,-3.023 2.109,-2.197L2.109,0.861Z" style="fill:rgb(77,171,178);fill-rule:nonzero;"/>
        </g>
        <g transform="matrix(1,0,0,1,200.743,271.441)">
            <path d="M0,3.709L3.445,3.709L3.445,-1.74L3.217,-1.327L0,3.709ZM5.546,3.709L7.154,3.709L7.154,5.405L5.546,5.405L5.546,8.253L3.445,8.253L3.445,5.405L-2.109,5.405L-2.162,4.131L3.375,-4.544L5.546,-4.544L5.546,3.709Z" style="fill:rgb(77,171,178);fill-rule:nonzero;"/>
        </g>
    </g>
</svg>
